<svg class="icon" viewBox="0 0 1024 1024" xmlns="http://www.w3.org/2000/svg" width="200" height="200"><defs><style/></defs><path d="M500.666 104.188c-82.888-50.127-204.526-.599-204.526-.599s12.745 130.705 95.719 180.746 204.526.599 204.526.599-12.83-130.962-95.72-180.746z" fill="#FFF"/><path d="M481.847 140.03c-66.807-40.376-164.836-.514-164.836-.514s10.265 105.3 76.986 145.418 164.836.513 164.836.513-9.837-105.043-76.986-145.418z" fill="#8ED420"/><path d="M558.833 285.96h.513s-10.264-105.3-76.986-145.418c-44.053-26.603-101.707-18.39-135.837-9.666 7.613-2.994 100.253-37.98 164.322.77 66.807 40.375 76.986 145.418 76.986 145.418a248.066 248.066 0 0 1-28.998 8.896z" fill="#86C617"/><path d="M611.954 283.394a15.74 15.74 0 0 1-9.666 15.996c-5.304 2.139-129.936 51.837-218.64-1.71S280.998 110.602 280.4 104.957a15.74 15.74 0 0 1 9.752-16.082c5.303-2.138 129.935-51.837 218.64 1.796S611.44 277.75 611.954 283.394zM399.9 270.82c60.99 36.868 147.984 13.772 178.95 3.592-5.39-32.163-25.662-119.756-86.396-156.794s-148.07-13.772-179.035-3.593c5.389 32.163 25.32 119.842 86.48 156.795z" fill="#86C617"/><path d="M258.417 925.629a282.282 98.371 0 1 0 564.564 0 282.282 98.371 0 1 0-564.564 0z" fill="#FCB9AC"/><path d="M340.963 243.618a227.622 227.622 0 0 1 130.62 42.342 227.622 227.622 0 0 1 130.619-42.256c144.306 0 261.325 140.37 261.325 313.504S746.508 870.712 602.202 870.712a227.622 227.622 0 0 1-130.62-42.257 227.622 227.622 0 0 1-130.62 42.257c-144.305 0-261.153-140.371-261.153-313.504s116.848-313.59 261.154-313.59z" fill="#FFF"/><path d="M374.665 290.836a213.85 213.85 0 0 1 123.606 36.526 213.85 213.85 0 0 1 121.552-42.77c135.752-3.336 248.494 125.487 252.686 287.757S769.86 869 634.879 872.423a213.85 213.85 0 0 1-123.606-36.526 213.85 213.85 0 0 1-121.553 42.77c-135.41 3.422-248.493-125.316-252.685-287.585s102.22-296.653 237.63-300.246z" fill="#FF7150"/><path d="M872.509 572.349c-2.909-113.084-58.766-209.83-138.148-256.62a326.934 326.934 0 0 1 69.716 196.741c4.105 162.527-102.649 296.653-237.63 300.075a213.85 213.85 0 0 1-123.606-36.526 209.573 209.573 0 0 1-236.09 12.147c46.276 57.312 111.201 92.298 182.97 90.501a213.85 213.85 0 0 0 121.552-42.77 213.85 213.85 0 0 0 123.52 36.612c135.41-3.593 241.821-137.891 237.716-300.16z" fill="#F25F41"/><path d="M602.288 890.3a246.27 246.27 0 0 1-130.706-38.407 246.27 246.27 0 0 1-130.62 38.408C186.05 890.3 60.05 740.862 60.05 557.122s126-333.093 280.914-333.093a246.27 246.27 0 0 1 130.62 38.408 246.27 246.27 0 0 1 130.619-38.408c154.913 0 280.914 149.439 280.914 333.179S757.115 890.3 602.288 890.3zm-130.706-81.433a19.589 19.589 0 0 1 11.206 3.507 209.145 209.145 0 0 0 119.756 38.75c133.272 0 241.736-131.903 241.736-293.916S735.56 263.207 602.288 263.207a209.145 209.145 0 0 0-119.757 38.75 19.589 19.589 0 0 1-22.411 0 209.145 209.145 0 0 0-119.756-38.75c-132.245 0-241.052 131.903-241.052 294s108.807 293.917 241.65 293.917a209.145 209.145 0 0 0 119.5-38.493 19.589 19.589 0 0 1 11.12-3.764z" fill="#EF5537"/><path d="M210.942 607.334a133.614 133.614 0 0 0 14.285 20.188 19.589 19.589 0 0 0 29.939-25.662c-33.446-39.605-30.196-101.793 7.955-151.064a19.589 19.589 0 1 0-30.965-23.951c-44.139 56.884-51.495 127.711-21.214 180.49zm88.277-212.396a19.589 19.589 0 0 0 24.892 8.554 159.361 159.361 0 0 1 22.412-7.87 19.589 19.589 0 1 0-10.094-38.236 200.164 200.164 0 0 0-27.972 9.837 19.589 19.589 0 0 0-10.093 25.662 18.99 18.99 0 0 0 .855 2.053z" fill="#FFF"/><path d="M447.631 503.574a21.727 21.727 0 1 1-16.167-15.14 21.813 21.813 0 0 1 16.167 15.14zm174.502-5.645a21.727 21.727 0 1 1-16.167-15.14 21.813 21.813 0 0 1 16.167 15.14zM504.088 580.73a54.831 54.831 0 0 1-43.455-52.692v-8.554a10.693 10.693 0 0 1 10.35-11.035l86.396-2.823a10.693 10.693 0 0 1 11.035 10.35v10.265a53.976 53.976 0 0 1-64.326 54.49z" fill="#3E3A39"/><path d="M515.293 547.456a34.216 34.216 0 0 0-10.521 1.968 10.693 10.693 0 0 0 1.112 20.615 43.198 43.198 0 0 0 20.102-.684 10.693 10.693 0 0 0 0-20.616 34.216 34.216 0 0 0-10.693-1.283z" fill="#FFF"/><path d="M812.716 147.557a17.108 17.108 0 1 0 6.758-15.825 17.108 17.108 0 0 0-6.758 15.825zm-470.47-128.31a17.108 17.108 0 1 0 6.757-15.825 17.108 17.108 0 0 0-6.757 15.825zm0 0" fill="#F8B62D"/><path d="M939.144 401.44a17.108 17.108 0 1 0-17.108 1.625 17.108 17.108 0 0 0 17.108-1.626zm0 0" fill="#FAEE00"/><path d="M874.305 237.801a34.815 34.815 0 1 1-48.587-8.554 34.9 34.9 0 0 1 48.587 8.554zm-42.77 30.453a17.621 17.621 0 1 0 4.191-24.636 17.621 17.621 0 0 0-4.191 24.636zm95.12 7.442l16.339 6.672-6.673 16.338a8.554 8.554 0 1 0 15.74 6.5l6.672-16.337 16.338 6.672a8.554 8.554 0 0 0 6.501-15.74l-16.338-6.672 6.672-16.338a8.554 8.554 0 0 0-15.74-6.5l-6.671 16.337-16.339-6.672a8.554 8.554 0 1 0-6.5 15.74zm0 0" fill="#F8B62D"/><path d="M245.928 193.15l-9.239-12.062 12.061-9.238a7.442 7.442 0 0 0-9.067-11.719l-12.06 9.238-9.24-12.06a7.442 7.442 0 1 0-11.718 9.066l9.238 12.062-12.061 9.152a7.442 7.442 0 0 0 9.067 11.72l12.318-9.239 9.238 12.061a7.442 7.442 0 0 0 10.35 1.369 7.356 7.356 0 0 0 1.284-10.35z" fill="#F7E42F"/><path d="M59.878 331.468a34.815 34.815 0 1 1 44.737-20.701 34.9 34.9 0 0 1-44.737 20.7zm18.049-49.186a17.621 17.621 0 1 0 10.436 22.583 17.621 17.621 0 0 0-10.436-22.583zm0 0" fill="#F8B62D"/><path d="M88.876 143.194a4.705 4.705 0 0 0-6.244-2.31 4.79 4.79 0 0 0-2.31 6.245l8.982 19.503a4.79 4.79 0 0 0 6.244 2.31 4.705 4.705 0 0 0 2.31-6.416zm23.78 51.324a4.79 4.79 0 0 0-6.244-2.31 4.705 4.705 0 0 0-2.31 6.245l8.982 19.503a4.705 4.705 0 0 0 8.554-3.935zm2.738-17.108a4.79 4.79 0 0 0 3.592 0l19.503-8.982a4.79 4.79 0 0 0 2.31-6.244 4.705 4.705 0 0 0-6.244-2.31l-19.59 9.153a4.705 4.705 0 0 0-2.309 6.245 4.79 4.79 0 0 0 2.652 2.395zm-32.42 6.073l-19.503 9.41a4.705 4.705 0 0 0 3.935 8.554l19.503-8.982a4.705 4.705 0 0 0-3.935-8.554zm5.902-7.527a4.705 4.705 0 0 0-2.823-5.988l-20.102-7.442a4.705 4.705 0 0 0-3.25 8.554l20.016 7.357a4.705 4.705 0 0 0 6.16-2.738zm50.81 13.772l-20.529-7.442a4.705 4.705 0 0 0-3.25 8.554l20.187 7.442a4.705 4.705 0 0 0 3.25-8.554zm-23.523-50.212a4.705 4.705 0 0 0-5.987 2.823l-7.528 20.187a4.705 4.705 0 0 0 8.554 3.25l7.699-20.358a4.705 4.705 0 0 0-2.823-5.988zm-19.246 53.291a4.705 4.705 0 0 0-5.988 2.823l-7.442 20.188a4.705 4.705 0 0 0 8.554 3.25l7.442-20.187a4.62 4.62 0 0 0-2.823-5.988zm0 0" fill="#FAEE00"/><path d="M573.46 64.583c55.773-32.591 136.437 1.625 136.437 1.625s-9.837 86.994-65.61 119.756-136.778-1.796-136.778-1.796 10.18-86.994 65.952-119.585z" fill="#FFF"/><path d="M585.35 88.705c44.995-26.26 110.347 1.283 110.347 1.283s-7.955 70.143-52.863 96.404-109.92-1.283-109.92-1.283 7.528-70.143 52.437-96.404z" fill="#8ED420"/><path d="M533.171 185.28s7.955-70.143 52.864-96.404c29.682-17.108 68.432-11.206 90.672-5.047-5.046-2.053-66.464-26.346-109.576-1.197-44.995 26.26-52.864 96.403-52.864 96.403a165.52 165.52 0 0 0 18.904 6.245z" fill="#86C617"/><path d="M568.157 55.515c59.878-34.814 142.339-.427 145.418 1.027a10.521 10.521 0 0 1 6.33 10.864c-.428 3.763-11.12 92.64-70.742 127.454s-142.338.428-145.418-1.026a10.521 10.521 0 0 1-6.33-10.864c.428-3.336 11.12-92.64 70.742-127.455zm130.02 17.109c-20.529-7.1-78.354-23.353-119.755.598s-55.259 82.29-59.194 103.675c20.53 7.1 78.355 23.352 119.756-.599s55.26-82.204 59.194-103.247z" fill="#86C617"/></svg>