<svg class="icon" viewBox="0 0 1024 1024" xmlns="http://www.w3.org/2000/svg" width="200" height="200"><defs><style/></defs><path d="M568.433 541.464C699.62 471.07 708.42 289.486 675.979 253.134l-79.015-20.265c-64.173 125.5-191.45 214.914-410.454 117.145a19.732 19.732 0 0 0-28.62 16.265c-6.666 101.68 173.941 301.752 410.543 175.185z" fill="#FFDC0B"/><path d="M247.66 550.086A305.929 305.929 0 0 1 169 492.757c-63.816-64.439-97.769-155.275-79.992-215.981a35.552 35.552 0 0 1 22.753-23.998 37.863 37.863 0 0 1 34.397 5.688c206.649 153.143 344.06 71.105 422.986-24.264a15.643 15.643 0 0 1 19.11-4l75.904 38.397a15.643 15.643 0 0 1 6.577 6.31c14.31 25.51 8.888 78.038-12.71 130.745-15.82 38.752-64.439 131.455-170.919 161.319-103.28 29.064-182.74 11.821-239.445-16.887zM126.694 282.82a6.044 6.044 0 0 0-4.622-.445 4.177 4.177 0 0 0-2.755 3.2c-12.265 42.219 8.888 121.5 71.905 185.229 42.84 42.84 136.433 108.523 287.442 66.127 93.147-26.22 136.521-108.88 150.742-143.187 19.376-46.663 20.976-84.26 15.91-99.814l-59.906-30.308c-65.594 74.926-191.183 164.43-375.7 71.104a570.617 570.617 0 0 1-82.305-51.195zM482.93 551.952z" fill="#F2C403"/><path d="M137.981 921.787a293.308 102.213 0 1 0 586.616 0 293.308 102.213 0 1 0-586.616 0z" fill="#FFED92"/><path d="M780.948 213.848l-268.51-18.31-9.6-110.568a12.177 12.177 0 0 1 21.154-10.665c21.598 24.886 209.226 50.395 259.889 34.13z" fill="#8ED420"/><path d="M623.983 641.989c149.054-136.788 99.28-379.256 44.441-416.32H557.323c-42.13 186.65-179.718 347.881-501.29 293.308a26.664 26.664 0 0 0-32.264 31.197c25.687 135.81 331.527 338.638 600.214 91.815z" fill="#FFF"/><path d="M781.214 638.7c62.217-232.869-21.776-433.918-131.722-417.741l-71.105 42.663c14.221 78.037 20.976 457.915-439.784 608.391a23.998 23.998 0 0 0-14.31 35.02c65.773 113.145 563.596 79.015 656.921-268.333z" fill="#FFF"/><path d="M806.19 573.728c26.22-214.115-73.772-381.478-168.874-353.036l-57.95 46.751c22.22 67.283 75.904 402.721-313.307 593.816a21.51 21.51 0 0 0-8.266 32.797c72.794 91.636 509.556-1.067 548.397-320.328z" fill="#FFDC0B"/><path d="M670.202 218.47c55.728 57.062 94.125 178.918 76.704 321.394-32.886 270.377-351.08 378.19-491.957 348.948a21.331 21.331 0 0 0 2.844 4.888c72.794 91.637 509.29-1.066 548.397-319.972 23.376-189.406-52.351-342.104-135.988-355.258z" fill="#F9CA06"/><path d="M295.567 984.537c-91.547 0-163.363-24.62-188.428-67.461a42.396 42.396 0 0 1-3.2-36.62 44.44 44.44 0 0 1 28.265-26.663c489.913-159.987 427.518-582.261 426.63-586.616a19.376 19.376 0 0 1 8.888-20.087l71.105-42.663a19.643 19.643 0 0 1 7.021-2.489c37.508-5.6 74.483 9.6 104.169 42.93 59.817 67.016 97.77 216.248 49.151 398.632C742.906 856.28 541.591 956.36 372.272 979.204a576.483 576.483 0 0 1-76.705 5.333zm303.619-711.05c17.776 136.966-30.131 478.092-454.983 616.836a6.222 6.222 0 0 0-4 3.466 3.466 3.466 0 0 0 0 3.289c19.465 33.152 105.502 59.639 226.47 43.285 156.964-21.154 343.259-112.968 395.432-307.085 45.063-167.54 10.488-305.484-40.619-362.813-13.688-15.376-36.175-33.152-65.505-30.486z" fill="#F2C403"/><path d="M1008.306 292.064l-13.333-8.444 8.444-13.332a7.733 7.733 0 0 0-12.976-8.266l-8.444 13.332-13.332-8.444a7.733 7.733 0 1 0-8.266 12.977l13.332 8.444-8.444 13.332a7.733 7.733 0 0 0 12.977 8.266l8.888-13.421 13.332 8.443a7.733 7.733 0 0 0 10.577-2.4 7.644 7.644 0 0 0-2.489-10.487zm-95.103 252.244l-13.332-8.443 8.443-13.333a7.733 7.733 0 0 0-12.976-8.177l-8.444 13.333-13.332-8.444a7.733 7.733 0 1 0-8.444 12.976l13.332 8.444-8.443 13.332a7.733 7.733 0 1 0 12.976 8.177l8.444-13.332 13.332 8.444a7.733 7.733 0 1 0 8.266-12.977z" fill="#F7E42F"/><path d="M884.494 213.315a17.776 17.776 0 1 0 16.177-8.888 17.776 17.776 0 0 0-15.821 8.266zm-3.466 196.96a36.175 36.175 0 1 1 49.951-11.287 36.264 36.264 0 0 1-49.951 11.287zm29.064-45.862a18.31 18.31 0 1 0 5.688 25.33 18.31 18.31 0 0 0-5.688-25.33zM168.023 170.119h-18.398V151.72a8.888 8.888 0 1 0-17.777 0v18.31h-18.22a8.888 8.888 0 0 0 0 17.776h18.31v18.398a8.888 8.888 0 0 0 17.775 0v-18.398h18.31a8.888 8.888 0 1 0 0-17.776zm148.52 119.19a36.175 36.175 0 1 1 36.175-36.175 36.264 36.264 0 0 1-36.175 36.174zm0-54.574a18.31 18.31 0 1 0 18.31 18.31 18.31 18.31 0 0 0-18.31-18.31zm0 0" fill="#F8B62D"/><path d="M277.258 95.28a4.888 4.888 0 0 0-6.933 0 4.977 4.977 0 0 0 0 6.933l15.821 15.821a4.977 4.977 0 0 0 6.933 0 4.888 4.888 0 0 0 0-6.933zm41.685 41.864a4.977 4.977 0 0 0-6.932 0 4.888 4.888 0 0 0 0 6.932l15.82 15.91a4.888 4.888 0 0 0 6.933-6.933zm-3.466-17.777a4.977 4.977 0 0 0 3.466-1.422l15.821-15.82a4.977 4.977 0 0 0 0-6.933 4.888 4.888 0 0 0-6.933 0l-15.82 15.82a4.888 4.888 0 0 0 0 6.933 4.977 4.977 0 0 0 3.466 1.422zm-29.42 17.777l-15.732 15.732a4.888 4.888 0 0 0 6.933 6.932l15.82-15.82a4.888 4.888 0 1 0-6.932-6.933zm3.111-9.51a4.888 4.888 0 0 0-4.888-4.89h-22.31a4.888 4.888 0 0 0 0 9.778h22.22a4.888 4.888 0 0 0 4.978-4.889zm54.04-4.978h-22.31a4.888 4.888 0 0 0 0 9.777h22.31a4.888 4.888 0 0 0 0-9.777zM302.5 81.86a4.888 4.888 0 0 0-4.888 4.888v22.31a4.888 4.888 0 1 0 9.777 0v-22.31a4.888 4.888 0 0 0-4.889-4.888zm0 59.017a4.888 4.888 0 0 0-4.888 4.888v22.31a4.888 4.888 0 1 0 9.777 0v-22.31a4.8 4.8 0 0 0-4.889-4.888zm0 0" fill="#FAEE00"/><path d="M697.755 611.68c119.9-146.654 41.33-364.413-14.666-391.7L580.7 234.736c-14.044 179.007-119.99 346.637-425.386 338.46a25.153 25.153 0 0 0-25.687 33.152c41.597 122.479 352.059 269.755 568.129 5.333z" fill="#FFDC0B"/><path d="M363.117 787.22a404.854 404.854 0 0 1-127.189-20.709c-113.857-37.685-207.715-125.144-223.18-207.36a46.751 46.751 0 0 1 12.443-42.04 50.129 50.129 0 0 1 43.996-13.866c335.615 57.417 449.294-121.056 484.847-281.042a20.71 20.71 0 0 1 20.176-16.088h112.701a20.62 20.62 0 0 1 11.555 3.556c32.086 21.598 57.506 86.748 63.194 162.03 4.178 55.106 2.222 193.85-105.59 292.775C551.279 760.112 447.377 787.22 363.117 787.22zM60.477 543.954a8 8 0 0 0-5.777 2.222 5.6 5.6 0 0 0-1.334 5.333c10.755 57.24 83.015 138.299 195.539 175.807 75.904 25.242 226.114 46.662 379.078-93.681 94.925-86.66 96.08-210.115 92.437-259.178-5.067-66.75-25.598-112.079-40.886-127.366h-88.881c-32.797 127.633-127.544 308.417-401.032 308.506a755.49 755.49 0 0 1-127.367-11.554zm581.55 104.88z" fill="#F2C403"/><path d="M411.824 570.262l-.889-1.422a12.799 12.799 0 0 1 3.733-17.777 135.544 135.544 0 0 0 12.355-8.888 12.799 12.799 0 0 1 16.354 19.643 157.497 157.497 0 0 1-14.666 10.843 12.799 12.799 0 0 1-16.887-2.4zM165.357 599.77a12.799 12.799 0 0 1 12.887-21.51 251.8 251.8 0 0 0 185.673-4.443 12.799 12.799 0 1 1 10.577 23.287 277.487 277.487 0 0 1-204.427 5.244 12.71 12.71 0 0 1-4.71-2.578z" fill="#FFF"/><path d="M484.294 518.873a19.198 19.198 0 1 0 13.296-36.021 19.198 19.198 0 1 0-13.296 36.021zM629.535 572.662a19.198 19.198 0 1 0 13.296-36.02 19.198 19.198 0 1 0-13.296 36.02zM540.613 589.993a47.818 47.818 0 0 1-28.264-61.328l3.11-8.443a9.6 9.6 0 0 1 12.355-5.689l71.105 26.664a9.6 9.6 0 0 1 5.688 12.355l-3.11 8.444a47.818 47.818 0 0 1-60.884 27.997z" fill="#3E3A39"/><path d="M551.19 561.462a30.308 30.308 0 0 0-26.665 2.933 38.041 38.041 0 0 0 45.419 16.799 30.308 30.308 0 0 0-18.754-19.732z" fill="#FFF"/><path d="M799.435 222.203a21.598 21.598 0 0 1-5.422 12.354 15.643 15.643 0 0 1-12.621 4.978L459.998 206.56a19.02 19.02 0 0 1-15.91-18.754L434.4 41.863a39.819 39.819 0 0 1 19.11-38.041 30.13 30.13 0 0 1 38.307 8c22.22 26.041 229.491 69.06 293.308 48.795a15.288 15.288 0 0 1 15.376 3.822 22.131 22.131 0 0 1 6.311 16.976l-7.2 139.01c-.088.622-.088 1.245-.177 1.778zM477.24 167.185l288.952 30.22 4.533-91.814c-64.616 11.732-271.71-29.598-301.662-63.372z" fill="#86C617"/></svg>