<svg class="icon" viewBox="0 0 1068 1024" xmlns="http://www.w3.org/2000/svg" width="208.594" height="200"><defs><style/></defs><path d="M298.325 911.848a321.829 112.152 0 1 0 643.657 0 321.829 112.152 0 1 0-643.657 0z" fill="#AB8CDD"/><path d="M390.973 190.171L371.468 82.895l48.762 9.753 58.514-78.02L537.26 102.4l58.514-29.257-19.505 117.028H390.973z" fill="#8742D1"/><path d="M532.285 114.688l-48.86-70.607-19.31 24.186 58.515 68.266-19.505 39.01h29.257l32.476 9.752 16.286-94.11-48.859 23.503z" fill="#7333C4"/><path d="M852.748 177.883a19.505 19.505 0 1 0-9.752-16.871 19.505 19.505 0 0 0 9.752 16.871zm-137.118-71.68l-10.728 13.556-13.556-10.727a8.485 8.485 0 0 0-10.435 13.263l13.556 10.727-10.728 13.264a8.485 8.485 0 1 0 13.264 10.435l10.727-13.556 13.946 11.118a8.485 8.485 0 0 0 9.753-13.264l-13.751-10.825 11.117-13.165a8.485 8.485 0 0 0-1.365-11.898 8.387 8.387 0 0 0-11.8 1.463zm277.162 59.587l-10.727 13.556-13.556-10.727a8.485 8.485 0 0 0-10.435 13.263l13.556 10.728-10.728 13.555a8.485 8.485 0 1 0 13.263 10.435l10.825-13.75 13.556 10.727a8.485 8.485 0 1 0 10.435-13.263l-13.555-10.728 10.727-13.556a8.485 8.485 0 1 0-13.36-10.24z" fill="#F7E42F"/><path d="M829.635 71.387a39.692 39.692 0 1 1-6.632-55.783 39.79 39.79 0 0 1 6.632 55.783zm-47.006-37.059a20.09 20.09 0 1 0 28.281-3.315 20.09 20.09 0 0 0-28.281 3.315zm0 0" fill="#F8B62D"/><path d="M151.845 207.14a19.505 19.505 0 1 0 18.139-7.216 19.505 19.505 0 0 0-18.14 7.217zm44.47-87.088l-11.702-12.776 12.678-11.8a8.485 8.485 0 0 0-11.508-12.386l-12.678 11.8-11.8-12.677a8.485 8.485 0 1 0-12.386 11.507l11.8 12.678-12.678 11.8a8.485 8.485 0 0 0 11.508 12.386l12.776-11.898 11.8 12.679a8.485 8.485 0 0 0 11.898 0 8.387 8.387 0 0 0 0-11.8z" fill="#F7E42F"/><path d="M256 117.809a39.692 39.692 0 1 1 56.076 2.145A39.79 39.79 0 0 1 256 117.81zm43.886-40.668a20.09 20.09 0 1 0-1.073 28.477 20.09 20.09 0 0 0 1.073-28.477zm0 0" fill="#F8B62D"/><path d="M22.138 248.686a5.364 5.364 0 0 0-7.607 0 5.461 5.461 0 0 0 0 7.607l17.36 17.359a5.461 5.461 0 0 0 7.606 0 5.364 5.364 0 0 0 0-7.607zm46.129 45.933a5.461 5.461 0 0 0-7.607 0 5.364 5.364 0 0 0 0 7.607l17.359 17.262a5.364 5.364 0 0 0 7.12-7.412zm-3.804-19.504a5.461 5.461 0 0 0 3.804-1.366l16.871-17.261a5.461 5.461 0 0 0 0-7.607 5.364 5.364 0 0 0-7.607 0L60.27 266.142a5.364 5.364 0 0 0 0 7.607 5.461 5.461 0 0 0 3.803 1.56zm-32.28 19.504L14.53 312.076a5.364 5.364 0 0 0 7.607 7.607l16.872-17.36a5.364 5.364 0 0 0-7.607-7.606zm3.413-10.435a5.364 5.364 0 0 0-5.364-5.363H5.364a5.364 5.364 0 0 0 0 10.727h23.893a5.364 5.364 0 0 0 5.461-5.364zm59.295-5.461H69.925a5.364 5.364 0 0 0 0 10.728H94.5a5.364 5.364 0 0 0 0-10.728zm-45.056-44.666a5.364 5.364 0 0 0-5.364 5.364v24.478a5.364 5.364 0 0 0 10.727 0v-24.478a5.364 5.364 0 0 0-5.363-5.364zm0 64.756a5.364 5.364 0 0 0-5.364 5.364v24.478a5.364 5.364 0 0 0 10.727 0v-24.478a5.266 5.266 0 0 0-5.363-5.364zm0 0" fill="#FAEE00"/><path d="M152.04000000000002 487.619a321.829 321.829 0 1 0 643.657 0 321.829 321.829 0 1 0-643.657 0z" fill="#FFF"/><path d="M205.67800000000005 492.495a307.2 307.2 0 1 0 614.4 0 307.2 307.2 0 1 0-614.4 0z" fill="#8742D1"/><path d="M512.878 185.295h-6.73A307.102 307.102 0 0 1 319.684 731.43a307.2 307.2 0 1 0 193.195-546.134z" fill="#7333C4"/><path d="M405.602 536.381a321.829 321.829 0 1 0 643.657 0 321.829 321.829 0 1 0-643.657 0z" fill="#FFF"/><path d="M444.61099999999993 553.448a299.886 299.886 0 1 0 599.771 0 299.886 299.886 0 1 0-599.771 0z" fill="#8742D1"/><path d="M882.786 287.305a299.788 299.788 0 0 1-344.747 483.133 299.886 299.886 0 1 0 344.747-483.133z" fill="#7333C4"/><path d="M703.05 468.114a73.143 29.257 90 1 0 58.513 0 73.143 29.257 90 1 0-58.514 0zM653.715 546.454a73.143 29.257 18 1 0 18.082-55.65 73.143 29.257 18 1 0-18.082 55.65z" fill="#532BA0"/><path d="M646.415 659.632A29.257 73.143 36 1 0 732.4 541.284a29.257 73.143 36 1 0-85.985 118.348z" fill="#532BA0"/><path d="M751.715 617.673a73.143 29.257 54 1 0 47.34-34.394 73.143 29.257 54 1 0-47.34 34.394z" fill="#532BA0"/><path d="M732.364 541.205A29.257 73.143 72 1 0 871.49 496a29.257 73.143 72 1 0-139.126 45.205z" fill="#532BA0"/><path d="M283.404 380.343a24.771 24.771 0 1 1-24.868-4.584 24.869 24.869 0 0 1 24.868 4.584zm164.133-113.225a24.771 24.771 0 1 1-24.869-4.584 24.869 24.869 0 0 1 24.869 4.584zm-62.415 152.234a62.513 62.513 0 0 1-74.119-23.893l-5.656-8.29a12.19 12.19 0 0 1 3.218-16.579l81.53-56.27a12.19 12.19 0 0 1 16.872 3.12l6.631 9.752a61.538 61.538 0 0 1-28.476 92.16z" fill="#3E3A39"/><path d="M375.37 380.343a39.01 39.01 0 0 0-8.876 8.387 12.19 12.19 0 0 0 13.751 19.505 49.25 49.25 0 0 0 18.92-12.971 12.19 12.19 0 0 0-12.873-19.505 39.01 39.01 0 0 0-10.923 4.584zM580.071 346.6a14.043 14.043 0 0 1 15.408 22.723 276.285 276.285 0 0 0-81.92 186.563 14.043 14.043 0 1 1-27.989 0 304.47 304.47 0 0 1 89.82-206.166 13.946 13.946 0 0 1 4.68-3.12zM240.786 492.203a14.043 14.043 0 0 1 27.21 3.706 276.285 276.285 0 0 0 84.65 185.295 14.043 14.043 0 1 1-18.822 20.967 304.47 304.47 0 0 1-93.72-204.8 13.946 13.946 0 0 1 .682-5.168z" fill="#FFF"/></svg>