<svg class="icon" viewBox="0 0 1024 1024" xmlns="http://www.w3.org/2000/svg" width="200" height="200"><defs><style/></defs><path d="M172.19 918.895a301.607 105.105 0 1 0 603.213 0 301.607 105.105 0 1 0-603.213 0z" fill="#D9EDA2"/><path d="M639.223 161.222c46.978 75.585 79.149 174.292 97.885 243.845 66.17 28.607 159.12 74.67 227.12 132.067-57.123 67.998-141.299 129.05-201.712 168.443-6.763 71.745-21.843 174.383-55.477 256.822-82.348-33.634-166.34-94.138-222.458-139.836-70.283 15.72-172.647 33.086-261.392 26.597 6.489-88.746 38.386-187.453 63.977-254.812-36.558-62.058-84.815-153.911-106.11-240.372 86.277-21.203 190.377-21.295 262.397-17.639 47.617-54.015 120.186-128.228 195.77-175.115z" fill="#FFF"/><path d="M651.196 210.21c41.677 67.085 70.192 154.551 86.826 216.243 59.407 25.774 141.664 67.085 201.802 117.536-50.999 60.32-125.303 114.519-178.953 149.432-6.032 63.977-19.376 154.642-49.17 227.759-73.118-29.795-147.605-83.81-197.325-123.933-62.332 13.983-153.088 29.338-231.871 23.58 5.758-78.783 34.09-166.25 56.94-226.022-32.537-54.838-75.22-136.546-94.138-213.227 76.864-18.828 168.717-18.919 232.237-15.994 42.59-47.618 106.933-113.423 173.652-155.373z" fill="#D5FF78"/><path d="M715.173 403.97l20.016 9.14c-16.726-56.026-41.494-122.014-74.853-175.48l-3.565 2.284a1002.522 1002.522 0 0 1 58.402 164.056zm178.588 105.562c-49.902 53.924-115.982 101.724-164.513 133.53-6.032 63.977-19.376 154.642-49.17 227.758-73.392-29.977-147.697-83.718-197.69-123.841a951.157 951.157 0 0 1-193.668 24.768c-2.834 16.543-4.936 32.994-6.124 49.08 78.784 5.758 169.448-9.688 231.872-23.58 49.72 40.123 124.207 94.138 197.324 123.933 29.795-73.117 43.138-164.513 49.17-227.76 53.559-34.912 127.955-89.019 178.862-149.34a529 529 0 0 0-46.063-34.548z" fill="#CBED6E"/><path d="M707.13 983.329a20.838 20.838 0 0 1-7.86-1.554c-80.977-32.994-162.959-91.396-219.898-136.545-71.198 15.354-170.454 31.166-257.737 24.86a20.93 20.93 0 0 1-19.376-22.393c6.307-87.191 36.559-182.792 61.875-251.339-36.558-62.971-82.256-152.448-103.277-237.629a20.93 20.93 0 0 1 15.08-24.951c84.816-20.93 185.443-21.935 258.102-18.736 48.532-54.29 119.546-125.487 193.76-171.55a20.93 20.93 0 0 1 28.79 6.763c45.697 74.213 78.234 169.54 97.61 239.731 66.628 29.339 156.196 74.854 223.098 131.245a20.93 20.93 0 0 1 2.467 29.52c-56.39 66.811-137.094 126.767-197.78 166.89-7.312 72.385-22.94 171.733-55.935 252.71a20.93 20.93 0 0 1-18.919 12.978zM484.581 801.634a20.93 20.93 0 0 1 13.161 4.66c50.45 40.763 123.933 94.413 197.598 127.955 27.419-76.315 40.214-166.34 46.338-230.866a20.93 20.93 0 0 1 9.14-15.537c54.289-35.37 127.954-88.654 182.791-148.336-63.977-49.536-145.776-89.66-205.275-115.433a20.93 20.93 0 0 1-11.881-13.8c-16.909-62.607-44.784-149.25-84.542-219.35-66.901 45.697-130.33 110.862-173.652 159.485a21.112 21.112 0 0 1-16.725 7.037c-64.709-3.29-155.373-3.564-235.162 12.43 23.58 77.961 65.988 158.115 99.073 213.958a21.021 21.021 0 0 1 1.554 18.28C283.876 662.62 255.543 749.08 246.22 829.6c81.068 2.468 170.636-13.161 233.882-27.419a20.564 20.564 0 0 1 4.478-.548z" fill="#B2E230"/><path d="M612.261 584.934a18.28 18.28 0 0 1-1.553-36.558l17.182-1.463a18.28 18.28 0 0 1 3.016 36.01l-17.09 2.011zM578.08 667.83a18.28 18.28 0 0 1-16.725-11.059l-6.672-15.903a18.28 18.28 0 0 1 33.36-13.983l6.671 15.903a18.28 18.28 0 0 1-16.634 25.042zm-95.965-22.483a18.28 18.28 0 0 1-11.882-31.806l13.07-11.242a18.28 18.28 0 0 1 23.671 27.419l-13.07 11.242a18.28 18.28 0 0 1-11.79 4.387zm6.397-89.477a18.28 18.28 0 0 1-9.14-2.65l-14.714-9.14a18.28 18.28 0 0 1 18.28-30.983l14.714 9.14a18.28 18.28 0 0 1-9.14 33.542zm72.386-30.526a18.28 18.28 0 0 1-17.64-22.21l3.93-16.816a18.28 18.28 0 0 1 35.188 8.225l-4.296 17.274a18.28 18.28 0 0 1-17.182 13.527z" fill="#B2E230"/><path d="M457.076 537.1329999999999a23.215 23.215 0 1 0 10.76-45.165 23.215 23.215 0 1 0-10.76 45.165zM638.64 580.423a23.215 23.215 0 1 0 10.76-45.165 23.215 23.215 0 1 0-10.76 45.165zM534.758 613.998a57.67 57.67 0 0 1-42.682-69.37l2.467-10.51a11.607 11.607 0 0 1 13.984-8.591l89.477 21.295a11.607 11.607 0 0 1 8.59 13.983l-2.467 10.511a57.67 57.67 0 0 1-69.37 42.682z" fill="#3E3A39"/><path d="M543.257 578.353a36.558 36.558 0 0 0-31.805 7.404 45.698 45.698 0 0 0 56.848 13.526 36.558 36.558 0 0 0-25.043-20.93z" fill="#FFF"/><path d="M235.527 252.984l-13.892-8.591 8.683-13.71a7.951 7.951 0 0 0-13.344-8.5l-8.683 13.71-14.075-8.683a7.951 7.951 0 1 0-8.5 13.344l13.71 8.683-8.683 13.71a7.951 7.951 0 0 0 13.344 8.499l9.14-13.8 13.71 8.682a7.951 7.951 0 0 0 10.875-2.468 7.86 7.86 0 0 0-2.559-10.785z" fill="#F7E42F"/><path d="M757.124 171.642a18.28 18.28 0 1 0 16.268-8.5 18.28 18.28 0 0 0-16.268 8.5zm151.717 230.5a37.198 37.198 0 1 1 51.365-11.607 37.29 37.29 0 0 1-51.365 11.607zm29.978-47.434a18.828 18.828 0 1 0 5.85 26.047 18.828 18.828 0 0 0-5.85-26.047zm-113.97-71.38h-19.102v-19.194a9.14 9.14 0 1 0-18.28 0v19.193H768.64a9.14 9.14 0 0 0 0 18.28h18.827v18.279a9.14 9.14 0 0 0 18.28 0v-18.28h19.101a9.14 9.14 0 1 0 0-18.279zM99.895 460.36a37.198 37.198 0 1 1 37.198-37.198 37.29 37.29 0 0 1-37.198 37.198zm0-56.117a18.828 18.828 0 1 0 18.919 18.92 18.828 18.828 0 0 0-18.828-18.828zm0 0" fill="#F8B62D"/><path d="M59.59 260.844a5.027 5.027 0 0 0-7.129 0 5.118 5.118 0 0 0 0 7.129L68.73 284.24a5.118 5.118 0 0 0 7.129 0 5.027 5.027 0 0 0 0-7.129zm43.23 42.956a5.118 5.118 0 0 0-7.128 0 5.027 5.027 0 0 0 0 7.129l16.268 16.268a5.027 5.027 0 0 0 6.672-7.311zm-3.564-18.28a5.118 5.118 0 0 0 3.564-1.187l16.269-16.269a5.118 5.118 0 0 0 0-7.129 5.027 5.027 0 0 0-7.129 0l-16.634 16.269a5.027 5.027 0 0 0 0 7.129 5.118 5.118 0 0 0 3.564 1.462zM69.004 303.8L52.46 319.886a5.027 5.027 0 0 0 7.13 7.129l15.81-16.269a5.027 5.027 0 0 0-7.128-7.129zm3.199-9.78a5.027 5.027 0 0 0-5.027-5.026H43.87a5.027 5.027 0 0 0 0 10.053h22.392a5.027 5.027 0 0 0 5.118-5.026zm55.569-5.117h-23.398a5.027 5.027 0 0 0 0 10.053h23.032a5.027 5.027 0 0 0 0-10.053zm-42.225-42.134a5.027 5.027 0 0 0-5.027 5.027v23.306a5.027 5.027 0 0 0 10.053 0v-22.94a5.027 5.027 0 0 0-5.026-5.393zm0 60.687a5.027 5.027 0 0 0-5.027 5.027v22.94a5.027 5.027 0 1 0 10.053 0v-22.575a4.935 4.935 0 0 0-5.026-5.027zm0 0" fill="#FAEE00"/><path d="M556.967 155.373c-59.59 34.822-145.777-1.736-145.777-1.736s10.51-92.95 70.101-127.955 145.776 1.737 145.776 1.737-10.419 93.59-70.1 127.954z" fill="#FFF"/><path d="M544.263 130.056c-48.074 28.059-117.444-1.37-117.444-1.37s8.5-74.945 56.483-103.004 117.443 1.737 117.443 1.737-8.408 74.579-56.482 102.637z" fill="#8ED420"/><path d="M600.38 26.87s-8.5 74.945-56.483 103.004c-31.714 18.279-73.117 11.972-96.88 5.392 5.393 2.193 71.015 28.15 117.079 1.28 48.074-28.059 56.482-103.004 56.482-103.004a176.851 176.851 0 0 0-20.198-6.672z" fill="#86C617"/><path d="M562.633 165.518c-63.977 37.198-152.082.457-155.373-1.097a11.242 11.242 0 0 1-6.763-11.607c.457-4.021 11.881-98.982 75.584-136.18s152.083-.457 155.373 1.097a11.242 11.242 0 0 1 6.764 11.607c-.366 4.022-11.79 98.616-75.585 136.18zm-138.921-18.28c21.935 7.587 83.718 24.952 127.954-.639s58.767-88.38 62.972-111.229c-21.935-7.586-83.719-24.95-127.955.64s-58.767 87.923-62.88 110.772z" fill="#86C617"/><path d="M300.327 223.829c77.87 47.069 191.931.64 191.931.64S480.56 101.631 402.6 54.837s-191.931-.64-191.931-.64 11.79 122.562 89.659 169.63z" fill="#FFF"/><path d="M317.692 190.104c62.79 37.929 155.373.457 155.373.457S462.92 91.396 400.131 53.649s-155.373-.457-155.373-.457 10.145 98.982 72.934 136.912z" fill="#8ED420"/><path d="M245.764 52.918h-.549s9.688 98.982 72.477 137.094c41.403 25.043 95.6 17.274 127.955 9.14-7.13 2.833-94.23 35.644-154.368-.731-62.79-37.93-72.477-137.094-72.477-137.094a233.242 233.242 0 0 1 26.962-8.409z" fill="#86C617"/><path d="M195.679 55.386a14.806 14.806 0 0 1 9.14-15.172c4.935-2.01 122.104-48.714 205.457 1.645s96.514 175.846 96.971 181.147a14.806 14.806 0 0 1-9.14 15.172c-4.935 2.01-122.104 48.714-205.457-1.645S196.227 60.687 195.679 55.386zm199.608 11.79c-57.67-34.639-139.378-12.887-168.534-3.199 5.118 30.252 23.855 112.691 81.251 147.33s139.105 12.887 168.26 3.382c-5.118-30.343-23.763-112.691-80.977-147.513z" fill="#86C617"/><path d="M517.667 393.002l-.823-1.096a13.161 13.161 0 0 1 3.839-18.28 139.379 139.379 0 0 0 12.704-9.139 13.161 13.161 0 0 1 16.816 20.198 161.954 161.954 0 0 1-15.08 11.15 13.161 13.161 0 0 1-17.456-2.833zm-244.21 4.205a13.161 13.161 0 0 0 13.252 22.118 258.925 258.925 0 0 1 190.926 4.57 13.161 13.161 0 1 0 10.876-23.946 285.338 285.338 0 0 0-210.21-5.393 13.07 13.07 0 0 0-4.844 2.65z" fill="#FFF"/></svg>