<svg class="icon" viewBox="0 0 1024 1024" xmlns="http://www.w3.org/2000/svg" width="200" height="200"><defs><style/></defs><path d="M215.489 925.152a283.65 98.848 0 1 0 567.3 0 283.65 98.848 0 1 0-567.3 0z" fill="#FCB9AC"/><path d="M519.252 692.474a220.56 220.56 0 1 0 441.118 0 220.56 220.56 0 1 0-441.118 0z" fill="#FFF"/><path d="M555.611 712.071a203.798 203.798 0 1 0 407.595 0 203.798 203.798 0 1 0-407.595 0z" fill="#FF6243"/><path d="M872.868 542.741a203.798 203.798 0 0 1-282.79 282.446 203.798 203.798 0 1 0 282.79-282.446z" fill="#EF533A"/><path d="M643.284 642.534a19.684 19.684 0 0 0 38.594 7.822 74.952 74.952 0 0 1 88.189-58.449 19.684 19.684 0 1 0 7.822-38.593 114.32 114.32 0 0 0-134.605 89.22z" fill="#FFF"/><path d="M356.884 243.62a21.66 21.66 0 0 1-18.308-33.179C388.343 131.363 459.857 88.128 570.653 70.25a21.66 21.66 0 1 1 6.962 42.977c-98.504 15.987-158.93 52.002-202.079 120.336a21.575 21.575 0 0 1-18.652 10.057zm383.099 689.01a240.243 240.243 0 1 1 240.242-240.242A240.672 240.672 0 0 1 739.983 932.63zm0-441.118a200.876 200.876 0 1 0 200.875 200.876 201.047 201.047 0 0 0-200.875-200.79z" fill="#EF492E"/><path d="M708.266 491.598a19.684 19.684 0 0 1-18.395-26.818c42.204-108.99-33.78-268.35-176.636-370.721a19.684 19.684 0 1 1 23.036-31.975C693.224 174.512 775.052 353.727 726.66 478.963a19.684 19.684 0 0 1-18.394 12.635zm-315.023-87.587a19.684 19.684 0 0 1-19.684-19.684 499.395 499.395 0 0 0-26.56-163.313 19.684 19.684 0 0 1 37.218-12.893 538.762 538.762 0 0 1 28.71 176.292 19.684 19.684 0 0 1-19.684 19.598z" fill="#EF492E"/><path d="M780.553 229.61a17.19 17.19 0 1 0 8.596-14.957 17.19 17.19 0 0 0-8.596 14.956zM49.941 444.494a17.19 17.19 0 1 0 8.595-14.956 17.19 17.19 0 0 0-8.595 14.956zm0 0" fill="#F8B62D"/><path d="M950.055 321.752l-8.595 12.464-12.463-8.596a7.478 7.478 0 0 0-8.596 12.206l12.464 8.595-8.596 12.464a7.478 7.478 0 1 0 12.206 8.595l8.595-12.463 12.463 8.595a7.478 7.478 0 0 0 8.596-12.205l-12.55-8.596 8.596-12.463a7.478 7.478 0 0 0-1.805-10.4 7.392 7.392 0 0 0-10.315 1.89zm-171.307-216.09l-8.595 12.464-12.464-8.595a7.478 7.478 0 0 0-8.595 12.12l12.463 8.595-8.595 12.463a7.478 7.478 0 1 0 12.205 8.596l8.596-12.464 12.463 8.596a7.478 7.478 0 1 0 8.596-12.12l-12.464-8.595 8.596-12.464a7.478 7.478 0 1 0-12.206-8.595z" fill="#F7E42F"/><path d="M840.98 392.32a34.983 34.983 0 1 1-8.596-48.735 35.07 35.07 0 0 1 8.595 48.736zm-42.978-30.427a17.707 17.707 0 1 0 24.755-4.212 17.707 17.707 0 0 0-24.755 4.212zM442.237 163.768H424.53v-17.62a8.595 8.595 0 1 0-17.19 0v17.706h-17.707a8.595 8.595 0 0 0 0 17.19h17.706v17.707a8.595 8.595 0 0 0 17.191 0V180.53h17.707a8.595 8.595 0 1 0 0-17.19zm-222.622 13.151a12.893 12.893 0 1 0 12.893-12.893 12.893 12.893 0 0 0-12.893 12.893zM78.735 322.096a34.983 34.983 0 1 1 34.984-34.983 35.07 35.07 0 0 1-34.984 34.983zm0-52.776a17.707 17.707 0 1 0 17.793 17.793 17.707 17.707 0 0 0-17.707-17.707zm0 0" fill="#F8B62D"/><path d="M178.357 280.494a4.727 4.727 0 0 0-6.705 0 4.813 4.813 0 0 0 0 6.705l15.3 15.3a4.813 4.813 0 0 0 6.704 0 4.727 4.727 0 0 0 0-6.705zm40.312 40.485a4.813 4.813 0 0 0-6.704 0 4.727 4.727 0 0 0 0 6.704l15.3 15.3a4.727 4.727 0 0 0 6.704-6.704zm-3.352-17.191a4.813 4.813 0 0 0 3.352-1.375l15.3-15.3a4.813 4.813 0 0 0 0-6.705 4.727 4.727 0 0 0-6.704 0l-15.3 15.3a4.727 4.727 0 0 0 0 6.705 4.813 4.813 0 0 0 3.352 1.375zm-28.451 17.19l-15.3 15.3a4.727 4.727 0 0 0 6.705 6.705l15.3-15.3a4.727 4.727 0 0 0-6.705-6.704zm3.008-9.196a4.727 4.727 0 0 0-4.727-4.728h-21.575a4.727 4.727 0 0 0 0 9.455h21.489a4.727 4.727 0 0 0 4.813-4.727zm52.26-4.814h-21.66a4.727 4.727 0 0 0 0 9.455h21.575a4.727 4.727 0 0 0 0-9.455zm-39.366-39.367a4.727 4.727 0 0 0-4.728 4.727v21.575a4.727 4.727 0 0 0 9.455 0v-21.575a4.727 4.727 0 0 0-4.727-4.727zm0 57.074a4.727 4.727 0 0 0-4.728 4.727v21.575a4.727 4.727 0 1 0 9.455 0v-21.575a4.642 4.642 0 0 0-4.727-4.727zm0 0" fill="#FAEE00"/><path d="M579.42 213.106c-76.328 44.266-186.35-2.837-186.35-2.837S406.91 91.48 483.324 46.956s186.349 2.836 186.349 2.836-13.925 119.047-90.252 163.314z" fill="#FFF"/><path d="M563.175 180.1c-61.544 35.67-149.82-2.321-149.82-2.321s11.175-95.754 72.718-131.425 150.163 2.321 150.163 2.321-11.518 95.753-73.061 131.424z" fill="#8ED420"/><path d="M635.376 48.417h.516s-11.174 95.753-72.717 131.425c-40.571 23.551-92.917 15.042-123.947 6.532 6.877 2.837 90.682 36.273 149.733 2.063 61.543-35.671 72.717-131.424 72.717-131.424a226.146 226.146 0 0 0-26.302-8.596z" fill="#86C617"/><path d="M586.554 225.483c-81.657 47.275-194.429 0-199.156-2.063a14.354 14.354 0 0 1-8.596-14.87c.602-5.157 15.644-126.525 97.3-174.143s194.43 0 199.157 2.063a14.354 14.354 0 0 1 8.596 14.87c-.602 5.5-15.644 126.868-97.3 174.143zm-177.496-24.497c28.021 9.8 106.928 32.32 163.314 0s75.897-111.74 81.398-141.395c-28.02-9.799-106.927-32.319-163.313 0s-75.984 112.343-81.399 141.395z" fill="#86C617"/><path d="M376.224 130.418c49.423 30.084 122.14.773 122.14.773s-7.65-78.046-56.73-108.13-122.14-.774-122.14-.774 7.306 78.047 56.73 108.13z" fill="#FFF"/><path d="M387.57 109.015c39.797 24.24 98.417.688 98.417.688s-6.188-63.005-45.985-87.244-98.418-.688-98.418-.688 5.93 63.005 45.986 87.244z" fill="#8ED420"/><path d="M341.928 21.685s5.587 63.09 45.642 87.33c26.216 15.988 60.683 11.174 81.055 6.017-4.556 1.719-60.168 22.434-98.074-.774C330.754 90.02 324.823 27.1 324.823 27.1a148.185 148.185 0 0 1 17.105-5.415z" fill="#86C617"/><path d="M310.21 23.147a9.369 9.369 0 0 1 5.846-9.627c3.18-1.29 77.359-30.686 130.564 1.46s60.942 111.742 61.2 115.266a9.369 9.369 0 0 1-5.845 9.627c-3.18 1.289-77.359 30.685-130.565-1.462S310.21 26.5 310.21 23.147zm126.611 7.993c-36.358-22.176-88.36-8.595-106.84-2.492 3.18 19.253 14.955 71.686 51.572 93.776s88.36 8.595 106.841 2.493c-3.524-19.254-14.87-71.6-51.658-93.863z" fill="#86C617"/><path d="M172.683 605.23a220.56 220.56 0 1 0 441.119 0 220.56 220.56 0 1 0-441.118 0z" fill="#FFF"/><path d="M218.927 621.132a207.408 207.408 0 1 0 414.816 0 207.408 207.408 0 1 0-414.816 0z" fill="#FF6243"/><path d="M539.795 447.504A207.408 207.408 0 0 1 252.707 734.59a207.408 207.408 0 1 0 287.088-287.087z" fill="#EF533A"/><path d="M393.243 845.473A240.243 240.243 0 1 1 633.485 605.23a240.672 240.672 0 0 1-240.242 240.243zm0-441.119A200.876 200.876 0 1 0 593.86 605.23a201.047 201.047 0 0 0-200.617-201.22z" fill="#EF492E"/><path d="M259.412 613.825a19.684 19.684 0 0 0 37.991-10.314 74.952 74.952 0 0 1 52.519-91.885 19.684 19.684 0 1 0-10.315-37.992 114.32 114.32 0 0 0-80.195 140.191z" fill="#FFF"/><path d="M362.47 578.498a21.832 21.832 0 1 1-16.244-15.214 21.918 21.918 0 0 1 16.245 15.214zm175.52-5.759a21.832 21.832 0 1 1-16.246-15.214 21.918 21.918 0 0 1 16.246 15.214zm-118.617 83.204a55.097 55.097 0 0 1-43.665-52.948V594.4a10.744 10.744 0 0 1 10.4-11.088l86.814-2.837a10.744 10.744 0 0 1 11.088 10.4v10.315a54.237 54.237 0 0 1-64.637 54.753z" fill="#3E3A39"/><path d="M430.547 622.42a34.382 34.382 0 0 0-10.573 1.978 10.744 10.744 0 0 0 1.118 20.715 43.407 43.407 0 0 0 20.371-.43 10.744 10.744 0 0 0 0-20.715 34.382 34.382 0 0 0-10.916-1.547z" fill="#FFF"/><path d="M689.098 664.453a21.832 21.832 0 1 1-16.246-15.214 21.918 21.918 0 0 1 16.246 15.214zm175.519-5.76a21.832 21.832 0 1 1-16.246-15.213 21.918 21.918 0 0 1 16.246 15.214zM746 741.899a55.097 55.097 0 0 1-43.665-52.948v-8.596a10.744 10.744 0 0 1 10.4-11.088l86.814-2.836a10.744 10.744 0 0 1 11.088 10.4v10.315A54.237 54.237 0 0 1 746 741.898z" fill="#3E3A39"/><path d="M757.174 708.375a34.382 34.382 0 0 0-10.573 1.977 10.744 10.744 0 0 0 1.118 20.715 43.407 43.407 0 0 0 20.37-.43 10.744 10.744 0 0 0 0-20.714 34.382 34.382 0 0 0-10.915-1.548z" fill="#FFF"/></svg>