<svg class="icon" viewBox="0 0 1079 1024" xmlns="http://www.w3.org/2000/svg" width="210.742" height="200"><defs><style/></defs><path d="M309.781 917.942a304.34 106.058 0 1 0 608.68 0 304.34 106.058 0 1 0-608.68 0z" fill="#BC80BF"/><path d="M428.935 379.537c6.087-152.078 41.408-259.334 126.9-316.329l44.73 73.78c93.238-100.802 278.516-13.926 278.516-13.926s0 129.76-42.884 175.226" fill="#FFF"/><path d="M468.868 335.27c-7.84-114.635 14.571-197.914 85.584-249.006l46.112 51.554c74.333-83.924 247.069-35.415 247.069-35.415s11.251 97.297-23.056 135.109" fill="#A8DB46"/><path d="M528.504 874.5500000000001a139.443 139.443 0 1 0 269.384-72.18 139.443 139.443 0 1 0-269.384 72.18z" fill="#FFF"/><path d="M585.847 640.46a145.714 145.714 0 1 0 281.5-75.428 145.714 145.714 0 1 0-281.5 75.428z" fill="#FFF"/><path d="M350.726 704.2170000000001a145.714 145.714 0 1 0 281.498-75.427 145.714 145.714 0 1 0-281.498 75.427z" fill="#FFF"/><path d="M178.93900000000002 532.463a145.714 145.714 0 1 0 281.499-75.427 145.714 145.714 0 1 0-281.498 75.427z" fill="#FFF"/><path d="M413.538 469.549a145.714 145.714 0 1 0 281.499-75.427 145.714 145.714 0 1 0-281.498 75.427z" fill="#FFF"/><path d="M648.074 406.745a145.714 145.714 0 1 0 281.5-75.427 145.714 145.714 0 1 0-281.5 75.427z" fill="#FFF"/><path d="M567.475 864.8729999999999a130.036 130.036 0 1 0 251.21-67.312 130.036 130.036 0 1 0-251.21 67.312z" fill="#7D0780"/><path d="M567.475 864.8729999999999a130.036 130.036 0 1 0 251.21-67.312 130.036 130.036 0 1 0-251.21 67.312z" fill="#7D0780"/><path d="M817.844 798.512a129.852 129.852 0 0 0-153-93.239 129.944 129.944 0 0 1 5.718 252.418c-2.029.553-4.15.922-6.179 1.29a129.852 129.852 0 0 0 153.461-160.47z" fill="#6C0172"/><path d="M620.172 647.543a135.846 135.846 0 1 0 262.435-70.32 135.846 135.846 0 1 0-262.435 70.32z" fill="#7D0780"/><path d="M882.032 578.096a135.846 135.846 0 0 0-127.361-100.617 135.846 135.846 0 0 1-72.212 253.156 135.846 135.846 0 0 0 199.573-152.54z" fill="#6C0172"/><path d="M400.927 707a135.846 135.846 0 1 0 262.435-70.32A135.846 135.846 0 1 0 400.927 707z" fill="#7D0780"/><path d="M663.369 636.658a135.754 135.754 0 0 0-163.33-96.65 135.846 135.846 0 0 1 2.675 263.115l-3.135.646a135.846 135.846 0 0 0 163.79-167.11z" fill="#6C0172"/><path d="M240.69899999999998 546.877a135.846 135.846 0 1 0 262.435-70.32 135.846 135.846 0 1 0-262.435 70.32z" fill="#7D0780"/><path d="M503.175 476.465A135.754 135.754 0 0 0 371.11 375.94a135.57 135.57 0 0 1-81.25 243.75 135.754 135.754 0 0 0 213.315-143.225z" fill="#6C0172"/><path d="M459.505 488.19899999999996a135.846 135.846 0 1 0 262.435-70.32 135.846 135.846 0 1 0-262.435 70.32z" fill="#7D0780"/><path d="M721.931 417.902a135.846 135.846 0 0 0-99.97-97.112 135.846 135.846 0 0 1-117.863 236.832 135.754 135.754 0 0 0 217.833-139.72z" fill="#6C0172"/><path d="M678.157 429.63599999999997a135.846 135.846 0 1 0 262.434-70.32 135.846 135.846 0 1 0-262.434 70.32z" fill="#7D0780"/><path d="M940.687 359.248a135.754 135.754 0 0 0-120.814-100.156 135.57 135.57 0 0 1-103.936 233.789 135.754 135.754 0 0 0 224.75-133.633z" fill="#6C0172"/><path d="M428.013 332.318h-.646a16.97 16.97 0 0 1-16.97-17.061c6.272-158.165 46.758-257.675 127.178-311.81A18.445 18.445 0 0 1 551.685.31a17.615 17.615 0 0 1 11.62 8.024l30.988 51.276c98.956-78.39 260.072-4.334 267.45-.922a16.324 16.324 0 0 1 9.5 15.402c0 13.188-1.292 130.22-45.006 176.425a18.445 18.445 0 0 1-24.9 1.475 15.678 15.678 0 0 1-1.569-23.148c26.838-28.405 34.769-105.874 35.968-144.239-36.89-14.663-165.358-58.839-232.22 13.373a18.445 18.445 0 0 1-15.126 5.625 17.8 17.8 0 0 1-13.649-8.3L542.74 41.628c-60.683 50.262-91.67 138.336-97.112 274.828a17.154 17.154 0 0 1-17.614 15.862z" fill="#8BCE09"/><path d="M424.231 338.405a15.401 15.401 0 0 1-14.94-15.77c0-1.476 3.136-148.758-49.709-219.217a15.401 15.401 0 0 1 24.624-18.445c58.47 79.036 55.519 231.944 55.335 238.123a15.401 15.401 0 0 1-15.31 15.31zM227.333 140.77c-27.114 0-55.888-17.892-55.888-50.908a72.027 72.027 0 0 1 37.72-64.557c33.57-18.445 79.681-13.372 123.303 13.926a15.401 15.401 0 1 1-16.323 25.638c-40.026-25.085-73.78-23.24-92.225-13.096a41.5 41.5 0 0 0-21.857 37.905c0 15.954 16.416 20.197 25.085 20.197a26.653 26.653 0 0 0 16.232-4.98 15.586 15.586 0 0 0 5.625-12.82 15.401 15.401 0 1 1 30.711 0 46.112 46.112 0 0 1-17.43 36.89 56.995 56.995 0 0 1-34.953 11.805z" fill="#8BCE09"/><path d="M672.13 999.007a160.747 160.747 0 0 1-158.902-181.774 21.396 21.396 0 0 1 23.701-18.445 21.12 21.12 0 0 1 18.445 23.702 118.324 118.324 0 1 0 209.534-58.47 21.12 21.12 0 0 1 32.74-25.915 160.747 160.747 0 0 1-125.426 261.179z" fill="#601343"/><path d="M500.685 833.373A167.11 167.11 0 0 1 339.477 709.7a165.266 165.266 0 0 1-2.398-76.454 21.12 21.12 0 1 1 41.41 8.485A124.595 124.595 0 0 0 532.87 786.89a124.78 124.78 0 0 0 88.075-152.538 123.212 123.212 0 0 0-27.022-50.355 21.12 21.12 0 0 1 31.633-27.667 166.926 166.926 0 0 1-124.872 277.042z" fill="#601343"/><path d="M735.488 770.476a167.664 167.664 0 0 1-105.136-36.89 21.12 21.12 0 0 1 26.561-32.924 124.595 124.595 0 0 0 198.743-129.114 123.857 123.857 0 0 0-21.58-43.714 21.12 21.12 0 1 1 33.477-25.823 166.741 166.741 0 0 1-132.065 268.465zM328.964 661.559a166.926 166.926 0 1 1 43.16-5.718 167.11 167.11 0 0 1-43.16 5.718zm0-291.429a124.595 124.595 0 1 0 120.352 92.225 124.687 124.687 0 0 0-120.444-92.225z" fill="#601343"/><path d="M563.213 598.754a166.834 166.834 0 1 1 161.393-210.087 167.11 167.11 0 0 1-161.393 210.087zm0-291.52a124.595 124.595 0 1 0 120.353 92.224 124.964 124.964 0 0 0-120.076-92.225z" fill="#601343"/><path d="M798.108 535.857a166.926 166.926 0 1 1 43.069-5.718 167.11 167.11 0 0 1-43.069 5.718zm0-291.428a124.595 124.595 0 1 0 120.353 92.224 124.872 124.872 0 0 0-120.445-92.224z" fill="#601343"/><path d="M143.778 303.36a18.445 18.445 0 1 0 15.77-9.222 18.445 18.445 0 0 0-15.77 9.222zm20.381-120.721l-12.911-9.96 9.96-13.004a8.024 8.024 0 0 0-12.635-9.776l-10.237 13.004-13.003-9.96a8.024 8.024 0 1 0-9.776 12.634l13.557 9.96-9.96 13.004a8.024 8.024 0 0 0 12.634 9.776l10.053-13.096 13.003 9.96a8.024 8.024 0 0 0 11.16-1.199 7.931 7.931 0 0 0-1.568-11.067z" fill="#F7E42F"/><path d="M234.895 262.136a37.535 37.535 0 1 1 52.66-6.825 37.627 37.627 0 0 1-52.66 6.825zm34.584-44.821a18.998 18.998 0 1 0 3.412 26.745 18.998 18.998 0 0 0-3.412-26.745zm0 0" fill="#F8B62D"/><path d="M994.823 267.761a18.445 18.445 0 1 0 4.795-17.891 18.445 18.445 0 0 0-4.795 17.891zm-40.671-83.001l-16.324 1.66-1.66-16.324a8.024 8.024 0 0 0-15.863 1.66l1.66 16.324-16.323 1.66a8.024 8.024 0 1 0 1.66 15.862l16.323-1.66 1.66 16.324a8.024 8.024 0 0 0 15.863-1.66l-1.66-16.416 16.324-1.66a8.024 8.024 0 0 0 7.101-9.222 7.931 7.931 0 0 0-8.761-7.01zM1069.8 345.875l-16.324 1.66-2.121-16.323a8.024 8.024 0 0 0-15.863 1.66l1.66 16.323-16.323 1.66a8.024 8.024 0 1 0 1.66 15.863l16.324-1.66 1.66 16.324a8.024 8.024 0 1 0 15.862-1.66l-1.66-16.324 16.324-1.66a8.024 8.024 0 1 0-1.66-15.863z" fill="#F7E42F"/><path d="M1004.783 627.436a37.535 37.535 0 1 1 33.477-41.224 37.627 37.627 0 0 1-33.477 41.224zm-5.81-56.257a18.998 18.998 0 1 0 20.935 16.97 18.998 18.998 0 0 0-20.935-16.97zm0 0" fill="#F8B62D"/><path d="M20.935 373.82a5.072 5.072 0 0 0-7.194 0 5.165 5.165 0 0 0 0 7.193l16.416 16.416a5.165 5.165 0 0 0 7.194 0 5.072 5.072 0 0 0 0-7.194zm43.622 43.437a5.165 5.165 0 0 0-7.194 0 5.072 5.072 0 0 0 0 7.193l16.416 16.324a5.072 5.072 0 0 0 6.733-7.009zm-3.597-18.445a5.165 5.165 0 0 0 3.597-1.291l15.955-16.324a5.165 5.165 0 0 0 0-7.193 5.072 5.072 0 0 0-7.194 0l-16.323 16.323a5.072 5.072 0 0 0 0 7.194 5.165 5.165 0 0 0 3.596 1.476zm-30.526 18.445l-16.693 16.508a5.072 5.072 0 0 0 7.194 7.194l15.955-16.416a5.072 5.072 0 1 0-7.194-7.194zm3.228-9.868a5.072 5.072 0 0 0-5.072-5.072H5.072a5.072 5.072 0 0 0 0 10.144h22.595a5.072 5.072 0 0 0 5.165-5.072zm56.072-5.165h-23.61a5.072 5.072 0 0 0 0 10.145h23.241a5.072 5.072 0 0 0 0-10.145zm-42.607-42.238a5.072 5.072 0 0 0-5.073 5.072v23.148a5.072 5.072 0 0 0 10.145 0v-23.148a5.072 5.072 0 0 0-5.072-5.072zm0 61.237a5.072 5.072 0 0 0-5.073 5.072v23.148a5.072 5.072 0 0 0 10.145 0v-23.148a4.98 4.98 0 0 0-5.072-5.072zm0 0" fill="#FAEE00"/><path d="M568.286 169.45a23.425 23.425 0 1 1-17.8-15.954 23.517 23.517 0 0 1 17.8 15.954zm187.953-10.329a23.425 23.425 0 1 1-17.8-15.954 23.517 23.517 0 0 1 17.8 15.954zm-125.056 92.132a59.116 59.116 0 0 1-48.05-55.334l-.553-9.223a11.528 11.528 0 0 1 10.883-12.081l93.054-5.072a11.528 11.528 0 0 1 12.081 10.882l.646 11.067a58.193 58.193 0 0 1-68.061 59.761z" fill="#3E3A39"/><path d="M642.342 215.01a36.89 36.89 0 0 0-11.252 2.397 11.528 11.528 0 0 0 1.753 22.134 46.573 46.573 0 0 0 21.949-1.107 11.528 11.528 0 0 0-.738-22.226 36.89 36.89 0 0 0-11.712-1.199zm-371.94 280.269l-1.292-.554a13.28 13.28 0 0 1-5.441-17.983 140.642 140.642 0 0 0 6.732-14.387 13.28 13.28 0 0 1 24.716 9.683 163.421 163.421 0 0 1-8.023 17.062 13.28 13.28 0 0 1-16.693 6.179zm249.005-73.78l-1.291-.553a13.28 13.28 0 0 1-5.442-17.984 140.642 140.642 0 0 0 6.733-14.387 13.28 13.28 0 0 1 24.716 9.684 163.421 163.421 0 0 1-8.024 17.061 13.28 13.28 0 0 1-16.692 6.18zm230.56-55.334l-1.29-.554a13.28 13.28 0 0 1-5.442-17.983 140.642 140.642 0 0 0 6.732-14.387 13.28 13.28 0 0 1 24.716 9.683 163.421 163.421 0 0 1-8.023 17.062 13.28 13.28 0 0 1-16.693 6.179zM464.072 716.617l-1.29-.554a13.28 13.28 0 0 1-5.442-17.983 140.642 140.642 0 0 0 6.732-14.387 13.28 13.28 0 0 1 24.716 9.683 163.421 163.421 0 0 1-8.023 17.062 13.28 13.28 0 0 1-16.693 6.179zm230.56-64.557l-1.29-.554a13.28 13.28 0 0 1-5.442-17.983 140.642 140.642 0 0 0 6.733-14.387 13.28 13.28 0 0 1 24.716 9.683 163.421 163.421 0 0 1-8.024 17.062 13.28 13.28 0 0 1-16.692 6.179zm-83.001 230.56l-1.291-.553a13.28 13.28 0 0 1-5.441-17.984 140.642 140.642 0 0 0 6.732-14.387 13.28 13.28 0 0 1 24.716 9.684 163.421 163.421 0 0 1-8.023 17.061 13.28 13.28 0 0 1-16.693 6.18z" fill="#FFF"/></svg>