<svg class="icon" viewBox="0 0 1024 1024" xmlns="http://www.w3.org/2000/svg" width="200" height="200"><defs><style/></defs><path d="M344.147 929.92a269.969 94.08 0 1 0 539.938 0 269.969 94.08 0 1 0-539.938 0z" fill="#F29CB1"/><path d="M617.961 354.968c25.443 7.036 88.517-119.195 24.543-291.648-109.378 101.034-116.25 86.063-155.028 231.191" fill="#FFF"/><path d="M635.223 379.184c25.443 7.035 88.517-119.196 24.543-291.649-109.379 100.625-115.923 85.981-155.028 230.783" fill="#8BCE09"/><path d="M620.007 374.03a26.506 26.506 0 0 1-7.036-.9 18.734 18.734 0 0 1 4.99-36.814c17.344-13.171 55.303-108.479 15.871-239.7l-24.542 21.598c-65.447 58.493-72.647 64.629-103.734 180.797a18.734 18.734 0 0 1-36.16-9.653c33.951-127.131 46.468-138.094 115.351-199.368 12.762-11.29 27.57-24.543 45.077-40.905a18.734 18.734 0 0 1 30.269 7.281c52.521 142.102 24.133 262.688-12.844 302.693a37.387 37.387 0 0 1-27.242 14.97z" fill="#E5355F"/><path d="M444.281 299.829S388.897 194.95 388.897 18.734c79.763 125.822 197.159 106.352 197.159 256.143" fill="#FFF"/><path d="M483.14 312.264s-50.885-96.37-50.885-258.107c73.22 115.514 181.043 97.516 181.043 235.119" fill="#8BCE09"/><path d="M444.281 318.645a18.734 18.734 0 0 1-16.361-9.98c-2.373-4.418-57.266-111.097-57.266-289.849a18.734 18.734 0 0 1 34.114-10.144c30.269 47.94 65.447 73.137 100.134 97.107 51.376 36.16 99.888 70.273 99.888 169.098a18.734 18.734 0 0 1-37.468 0c0-79.436-35.178-104.142-83.936-138.502a459.602 459.602 0 0 1-73.628-60.538c9.654 135.066 50.722 214.339 51.212 215.238a18.734 18.734 0 0 1-8.18 25.28 18.489 18.489 0 0 1-8.509 2.29z" fill="#E5355F"/><path d="M802.195 518.75c30.678 0 74.936-48.595 105.042-78.7 0 157.4-7.363 196.995-121.65 196.995" fill="#FFF"/><path d="M827.637 545.664c24.052 0 58.739-38.04 82.3-61.602 0 123.286-5.727 154.292-95.307 154.292" fill="#8BCE09"/><path d="M255.467 567.098a330.344 284.285 90 1 0 568.57 0 330.344 284.285 90 1 0-568.57 0z" fill="#FFF"/><path d="M296.535 589.023a316.027 269.314 90 1 0 538.629 0 316.027 269.314 90 1 0-538.63 0z" fill="#F35374"/><path d="M565.85 272.996a232.173 232.173 0 0 0-40.905 3.6c129.34 23.151 228.41 154.209 228.41 312.427s-99.07 289.194-228.41 312.346a232.173 232.173 0 0 0 40.904 3.6c148.728 0 269.315-141.448 269.315-316.028S714.577 272.996 565.849 272.996z" fill="#ED3E68"/><path d="M539.752 916.667c-167.299 0-303.428-156.827-303.428-349.569S372.044 217.53 539.752 217.53 843.181 374.357 843.181 567.1 707.46 916.666 539.752 916.666zm0-660.687c-146.11 0-265.06 139.565-265.06 310.873s118.868 310.873 265.06 310.873 265.06-139.566 265.06-310.873S685.945 255.98 539.753 255.98z" fill="#E5355F"/><path d="M157.542 476.618C185.684 608.493 322.059 697.5 329.34 596.877s-171.798-120.26-171.798-120.26z" fill="#FFF"/><path d="M206.709 496.743c22.088 103.651 129.34 173.68 135.23 94.57s-135.23-94.57-135.23-94.57z" fill="#8BCE09"/><path d="M785.587 655.86a18.734 18.734 0 1 1 0-37.468c83.69 0 100.053-13.416 102.507-132.694-31.66 30.597-59.312 51.867-85.9 51.867a18.734 18.734 0 1 1 0-37.468c19.635 0 58.494-39.432 81.81-62.993l10.144-10.226a18.734 18.734 0 0 1 31.987 13.253c-.164 153.473-5.563 215.73-140.548 215.73z" fill="#E5355F"/><path d="M541.634 638.108c39.432-31.742 42.704-93.18 42.704-93.18s-60.702-9.98-100.134 21.761c-19.143 15.462-8.753 39.923 6.627 59.148s33.05 26.915 50.803 12.271z" fill="#FFF"/><path d="M538.198 652.997c34.36-27.651 37.223-81.236 37.223-81.236s-52.93-8.671-87.29 18.98c-16.362 13.417-7.608 34.85 5.808 51.54s28.797 23.151 44.259 10.716z" fill="#8BCE09"/><path d="M480.195 634.754a13.662 13.662 0 1 1 21.27-17.098c17.426 21.68 26.998 13.907 31.579 10.226 23.806-19.225 32.723-52.03 35.914-70.192-18.407-.736-52.44.9-76.246 20.043a13.662 13.662 0 1 1-17.098-21.434c43.686-35.014 108.233-24.542 110.933-24.542A13.662 13.662 0 0 1 598 545.992c0 2.781-4.09 67.983-47.776 103.079-22.252 17.916-48.431 12.598-70.029-14.317zM294.49 658.969h-5.318c-53.83-4.5-129.34-81.808-149.955-178.179a18.734 18.734 0 0 1 20.125-22.661c5.563.654 137.684 15.87 177.443 88.272a18.734 18.734 0 0 1-32.724 18.08c-19.88-36.16-79.927-55.876-120.668-64.466 24.216 68.474 78.128 118.786 108.888 121.731a13.171 13.171 0 0 0 15.38-9.817 18.734 18.734 0 0 1 34.85 13.826 49.658 49.658 0 0 1-48.021 33.214z" fill="#E5355F"/><path d="M475.86 420.006a20.78 20.78 0 1 1-15.462-14.48 20.861 20.861 0 0 1 15.462 14.48zm167.053-5.481a20.78 20.78 0 1 1-15.462-14.48 20.861 20.861 0 0 1 15.462 14.48zm-112.814 79.19a52.44 52.44 0 0 1-41.56-50.393v-8.181a10.226 10.226 0 0 1 9.9-10.554l82.627-2.7a10.226 10.226 0 0 1 10.553 9.9v9.817a51.621 51.621 0 0 1-61.52 52.112z" fill="#3E3A39"/><path d="M540.734 461.81a32.723 32.723 0 0 0-10.063 1.882 10.226 10.226 0 0 0 1.064 19.716 41.313 41.313 0 0 0 19.307-.736 10.226 10.226 0 0 0 0-19.716 32.723 32.723 0 0 0-10.308-1.146z" fill="#FFF"/><path d="M905.764 178.016a16.362 16.362 0 1 0 1.064-16.362 16.362 16.362 0 0 0-1.064 16.362zm-118.131-52.521l-13.826 4.335-4.336-13.825a7.117 7.117 0 0 0-13.498 4.254l4.336 13.826-13.826 4.335a7.117 7.117 0 1 0 4.254 13.499l13.99-4.663 4.335 13.825a7.117 7.117 0 0 0 13.499-4.254l-4.418-13.989 13.662-3.763a7.117 7.117 0 0 0 4.663-8.917 7.036 7.036 0 0 0-8.835-4.5zM908.055 342.45l-13.826 4.336-4.335-13.825a7.117 7.117 0 0 0-13.499 4.254l4.336 13.825-13.826 4.336a7.117 7.117 0 1 0 4.254 13.499l13.826-4.336 4.336 13.825a7.117 7.117 0 1 0 13.498-4.254l-4.417-14.153 13.825-4.335a7.117 7.117 0 1 0-4.254-13.499z" fill="#F7E42F"/><path d="M839.99 269.969a33.296 33.296 0 1 1 21.843-41.723 33.378 33.378 0 0 1-21.843 41.723zm-15.053-47.858a16.853 16.853 0 1 0 21.189 11.044 16.853 16.853 0 0 0-21.189-11.044zm0 0" fill="#F8B62D"/><path d="M301.689 221.947a16.362 16.362 0 1 0 8.18-14.235 16.362 16.362 0 0 0-8.18 14.235zm0 0" fill="#F7E42F"/><path d="M208.427 237.982h-17.098v-17.098a8.18 8.18 0 1 0-16.362 0v16.852h-16.853a8.18 8.18 0 0 0 0 16.362h16.853v16.853a8.18 8.18 0 0 0 16.362 0v-16.608h17.098a8.18 8.18 0 1 0 0-16.361zm5.563 158.872a33.296 33.296 0 1 1 33.296-33.296 33.378 33.378 0 0 1-33.296 33.296zm0-50.23a16.853 16.853 0 1 0 16.852 16.852 16.853 16.853 0 0 0-16.852-16.852zm0 0" fill="#F8B62D"/><path d="M63.38 316.354a4.5 4.5 0 0 0-6.381 0 4.581 4.581 0 0 0 0 6.381l14.562 14.562a4.581 4.581 0 0 0 6.38 0 4.5 4.5 0 0 0 0-6.38zm38.695 38.532a4.581 4.581 0 0 0-6.38 0 4.5 4.5 0 0 0 0 6.381l14.561 14.48a4.5 4.5 0 0 0 6.381-6.38zm-3.19-16.361a4.581 4.581 0 0 0 3.19-1.146l14.562-14.562a4.581 4.581 0 0 0 0-6.38 4.5 4.5 0 0 0-6.38 0l-14.89 14.561a4.5 4.5 0 0 0 0 6.381 4.581 4.581 0 0 0 3.19 1.31zm-27.079 16.361L57 369.366a4.5 4.5 0 0 0 6.38 6.382l14.154-14.48a4.5 4.5 0 0 0-6.381-6.382zm2.863-8.753a4.5 4.5 0 0 0-4.499-4.5H49.309a4.5 4.5 0 0 0 0 9h20.043a4.5 4.5 0 0 0 4.581-4.5zm49.74-4.582h-20.943a4.5 4.5 0 0 0 0 9h20.616a4.5 4.5 0 0 0 0-9zm-37.795-37.468a4.5 4.5 0 0 0-4.5 4.5v20.534a4.5 4.5 0 0 0 9 0v-20.534a4.5 4.5 0 0 0-4.5-4.5zm0 54.321a4.5 4.5 0 0 0-4.5 4.5v20.534a4.5 4.5 0 1 0 9 0v-20.534a4.418 4.418 0 0 0-4.5-4.5zm0 0" fill="#FAEE00"/><path d="M741.493 910.45a21.68 21.68 0 0 1-20.78-37.96c33.542-22.006 40.25-50.558 34.278-63.81a21.68 21.68 0 0 1 10.88-28.715 21.68 21.68 0 0 1 28.715 10.88c14.644 32.724 2.21 83.609-50.067 117.886a21.598 21.598 0 0 1-3.026 1.718zm-53.176 30.35c-56.203 25.28-92.608-10.226-110.115-27.242a21.68 21.68 0 1 1 30.351-31.087c25.034 24.543 39.514 28.797 61.93 18.734a21.68 21.68 0 1 1 17.834 39.596z" fill="#E5355F"/><path d="M895.62 565.871c13.09 73.628-56.284 165.254-167.544 215.32-98.17 44.014-198.386 42.378-252.707 1.555a232.173 232.173 0 0 0 19.388 75.264c55.058 122.222 203.459 174.498 331.571 116.823s187.342-203.458 132.285-325.68a232.419 232.419 0 0 0-62.993-83.282z" fill="#F35374"/><path d="M958.531 649.152a232.419 232.419 0 0 0-62.91-83.28 119.85 119.85 0 0 1-5.973 60.292 232.828 232.828 0 0 1 11.944 22.988c55.058 122.223-4.254 268.006-132.284 325.68a264.979 264.979 0 0 1-79.764 21.844 261.788 261.788 0 0 0 137.03-21.843c127.785-57.675 187.014-203.458 131.957-325.68z" fill="#ED3E68"/><path d="M915.745 623.71a207.712 207.712 0 0 1 20.78 35.505c49.085 109.705-4.418 241.254-120.014 293.284a237.9 237.9 0 0 1-98.17 21.27A218.757 218.757 0 0 1 517.5 847.948a207.14 207.14 0 0 1-8.182-20.698 246.408 246.408 0 0 0 76.164 11.208 376.32 376.32 0 0 0 152.655-34.769C830.5 762.13 896.93 692.675 916.072 623.71m-20.452-57.838c13.09 73.628-56.284 165.254-167.544 215.32a352.596 352.596 0 0 1-142.593 32.724c-44.176 0-82.954-10.635-110.114-31.087a232.173 232.173 0 0 0 19.388 75.182c39.76 88.435 128.522 140.057 223.093 140.057a263.588 263.588 0 0 0 108.315-23.48c128.112-57.266 187.342-203.458 132.284-325.68a232.419 232.419 0 0 0-62.829-83.036z" fill="#E5355F"/><path d="M496.066 803.467a138.42 224.81 65.76 1 0 409.98-184.597 138.42 224.81 65.76 1 0-409.98 184.597z" fill="#FFF"/><path d="M822.483 723.68a6.79 6.79 0 0 1-5.154 0l-4.008-1.472a6.79 6.79 0 0 1 4.826-12.68l4.009 1.472a6.79 6.79 0 0 1 0 12.516zm-1.39-46.058l-3.846 1.718a6.79 6.79 0 1 1-5.563-12.435l3.845-1.718a6.79 6.79 0 0 1 5.563 12.435zm-30.188 79.6a6.79 6.79 0 0 1-8.999-3.436l-1.718-3.845a6.79 6.79 0 1 1 12.353-5.481l1.718 3.845a6.79 6.79 0 0 1-3.354 8.917zM732.739 598.43a6.79 6.79 0 0 1 2.863 4.336l.818 4.172a6.79 6.79 0 0 1-13.334 2.618l-.819-4.172a6.79 6.79 0 0 1 10.472-6.954zm-38.368 25.524l3.517 2.373a6.79 6.79 0 1 1-7.608 11.29l-3.518-2.373a6.79 6.79 0 1 1 7.609-11.29zm83.526-16.361a6.79 6.79 0 0 1 1.882 9.408l-2.372 3.517a6.79 6.79 0 1 1-11.29-7.608l2.372-3.518a6.79 6.79 0 0 1 9.408-1.8zm-120.177 3.6a6.79 6.79 0 0 1 0 5.235l-1.554 3.927a6.79 6.79 0 1 1-12.68-4.99l1.554-3.927a6.79 6.79 0 0 1 12.599 0zm45.895-20.371l1.718 3.927a6.79 6.79 0 1 1-12.517 5.399l-1.718-3.927a6.79 6.79 0 0 1 12.517-5.4zm60.13-10.88a6.79 6.79 0 0 1-3.518 9.08l-3.927 1.718a6.79 6.79 0 0 1-5.4-12.517l3.927-1.718a6.79 6.79 0 0 1 8.918 3.436zm-60.212 84.426a6.79 6.79 0 0 1-.572 5.154l-2.046 3.681a6.79 6.79 0 1 1-11.944-6.545l2.127-4.008a6.79 6.79 0 0 1 12.517 1.39zm-45.813-5.072l1.146 4.09a6.79 6.79 0 1 1-13.09 3.763l-1.145-4.09a6.79 6.79 0 1 1 13.09-3.763zm74.283 41.068a6.79 6.79 0 0 1-4.663 8.18l-4.09 1.146a6.79 6.79 0 0 1-3.764-13.09l4.336-1.227a6.79 6.79 0 0 1 8.18 4.99zm114.041-79.846a6.79 6.79 0 0 1-.573 5.154l-2.045 3.682a6.79 6.79 0 1 1-11.944-6.545l2.045-3.681a6.79 6.79 0 0 1 12.517 1.39zm-45.567 21.025l-2.127 3.682a6.79 6.79 0 1 1-11.78-7.118l2.126-3.681a6.79 6.79 0 1 1 11.78 6.708zm65.038 39.432a6.79 6.79 0 0 1-4.664 8.18l-4.09 1.146a6.79 6.79 0 1 1-3.763-13.09l4.09-1.145a6.79 6.79 0 0 1 8.427 4.909zm-169.426 131.63a6.79 6.79 0 0 1-2.864-4.336l-.818-4.172a6.79 6.79 0 0 1 13.335-2.372l.818 4.172a6.79 6.79 0 0 1-10.471 6.954zm38.368-25.36l-3.518-2.373a6.79 6.79 0 0 1 7.608-11.29l3.518 2.373a6.79 6.79 0 0 1-7.608 11.29zm-83.527 16.198a6.79 6.79 0 0 1-1.8-9.408l2.373-3.518a6.79 6.79 0 0 1 11.29 7.608l-2.373 3.518a6.79 6.79 0 0 1-9.49 1.8zm17.67-29.206a6.79 6.79 0 0 1-2.862-4.336l-.818-4.172a6.79 6.79 0 0 1 13.334-2.618l.818 4.172a6.79 6.79 0 0 1-10.471 6.954zm38.86-25.36l-3.518-2.373a6.79 6.79 0 1 1 7.609-11.29l3.517 2.373a6.79 6.79 0 0 1-7.608 11.29zm-83.936 16.116a6.79 6.79 0 0 1-1.8-9.408l2.373-3.518a6.79 6.79 0 0 1 11.29 7.608l-2.373 3.518a6.79 6.79 0 0 1-9.49 1.8zm48.677-41.641a6.79 6.79 0 0 1 1.963-4.827l3.027-3.027a6.79 6.79 0 1 1 9.653 9.572l-3.027 3.027a6.79 6.79 0 0 1-11.616-4.745zm-79.273 4.745a6.79 6.79 0 0 1 1.963-4.827l3.027-3.027a6.79 6.79 0 1 1 9.654 9.572l-3.027 3.027a6.79 6.79 0 0 1-11.617-4.745zm10.553-44.831a6.79 6.79 0 0 1 1.964-4.827l3.027-3.027a6.79 6.79 0 1 1 9.653 9.572l-3.027 3.027a6.79 6.79 0 0 1-11.617-4.745zm126.886-20.616v-4.09a6.79 6.79 0 0 1 13.58 0v4.09a6.79 6.79 0 0 1-13.58 0zm36.732 14.07v-4.253a6.79 6.79 0 1 1 13.58 0v4.254a6.79 6.79 0 0 1-13.58 0zm32.396-85.571v-4.254a6.79 6.79 0 0 1 13.58 0v4.254a6.79 6.79 0 0 1-13.58 0zm-42.95 130.73v-4.254a6.79 6.79 0 1 1 13.58 0v4.254a6.79 6.79 0 1 1-13.58 0zM629.17 692.184a6.79 6.79 0 0 1 6.79-6.79h4.254a6.79 6.79 0 1 1 0 13.58h-4.254a6.79 6.79 0 0 1-6.79-6.79zm-66.838 80.172a6.79 6.79 0 0 1 2.046-4.745l3.027-2.945a6.79 6.79 0 1 1 9.162 9.736l-3.027 2.945a6.79 6.79 0 0 1-11.535-4.99zm42.296 18.244v-4.254a6.79 6.79 0 0 1 13.58 0v4.254a6.79 6.79 0 0 1-13.58 0zm-59.23-61.111a6.79 6.79 0 0 1 6.872-6.709h4.254a6.79 6.79 0 1 1 0 13.58h-4.5a6.79 6.79 0 0 1-6.626-6.871zm32.233-83.609a6.79 6.79 0 0 1 4.745 2.045l2.945 3.027a6.79 6.79 0 1 1-9.736 9.49l-2.945-3.027a6.79 6.79 0 0 1 4.99-11.535zm-18.244 42.295h4.254a6.79 6.79 0 0 1 0 13.58h-4.254a6.79 6.79 0 0 1 0-13.58zm61.03-59.311a6.79 6.79 0 0 1 6.708 6.872v4.254a6.79 6.79 0 1 1-13.58 0v-4.254a6.79 6.79 0 0 1 6.872-6.872z" fill="#3E3A39"/><path d="M445.672 338.034a11.78 11.78 0 0 1 10.226 20.616 231.764 231.764 0 0 0-89.253 146.028 11.78 11.78 0 1 1-23.234-3.354 255.407 255.407 0 0 1 97.762-161.163 11.699 11.699 0 0 1 4.5-2.127z" fill="#FFF"/></svg>