<svg class="icon" viewBox="0 0 1024 1024" xmlns="http://www.w3.org/2000/svg" width="200" height="200"><defs><style/></defs><path d="M272.399 926.79a278.95 97.21 0 1 0 557.9 0 278.95 97.21 0 1 0-557.9 0z" fill="#F9AEAA"/><path d="M498.095 131.022a21.133 21.133 0 0 1 23.753 0c71.935 48.774 326.287 60.101 369.397 330.175 48.859 306.084-211.326 473.37-381.316 322.568C340.192 934.482 79.754 767.28 128.866 461.197c42.942-270.074 297.209-281.401 369.229-330.175z" fill="#FFF"/><path d="M540.529 162.72a19.442 19.442 0 0 1 21.809 0c65.933 44.717 299.068 55.03 338.628 302.704 44.801 280.556-193.49 433.81-349.533 295.856C395.475 899.318 157.1 746.149 201.901 465.424 241.376 217.75 474.51 207.437 540.529 162.72z" fill="#FC7D70"/><path d="M900.882 465.424C861.406 217.75 628.272 207.437 562.253 162.72a19.442 19.442 0 0 0-21.809 0c-1.352.93-2.958 1.86-4.48 2.79 97.126 34.234 233.642 89.263 263.397 275.23 31.868 199.66-76.5 336.092-199.07 352.998C752.194 867.196 941.204 718 900.882 465.424z" fill="#FC6159"/><path d="M532.668 114.961c14.708 9.975 40.659 19.02 70.667 29.501 101.436 35.588 272.103 95.097 307.014 313.692 25.95 162.383-32.29 308.367-148.182 371.934a225.611 225.611 0 0 1-252.238-21.133 225.611 225.611 0 0 1-252.238 21.302C141.8 766.605 83.558 620.537 109.509 458.323c34.911-218.68 205.324-278.273 306.76-313.776 30.009-10.482 55.96-19.527 70.668-29.501a40.321 40.321 0 0 1 45.477 0zm-23.415 32.122c-18.85 12.764-47 22.654-79.628 33.812-106.339 37.109-250.632 87.658-281.824 283.345-28.317 177.514 51.564 289.77 128.57 332.035 73.458 40.575 156.044 30.347 220.71-27.05a19.357 19.357 0 0 1 25.358 0c65.089 57.397 147.421 67.625 221.132 27.05C820.578 754.01 900.459 641.67 872.14 464.24c-31.276-195.687-175.907-246.32-281.57-283.176-32.629-11.412-60.693-21.217-79.628-33.812a1.775 1.775 0 0 0-2.028 0z" fill="#EA5C54"/><path d="M425.581 499.463a21.47 21.47 0 1 0 42.919-1.401 21.47 21.47 0 1 0-42.919 1.401zM598.172 493.918a21.47 21.47 0 1 0 42.918-1.401 21.47 21.47 0 1 0-42.918 1.401zM535.795 569.988a53.339 53.339 0 0 1-54.944-51.48v-9.974a10.735 10.735 0 0 1 10.397-11.073l85.037-2.79a10.735 10.735 0 0 1 11.074 10.398v9.974a53.339 53.339 0 0 1-51.564 54.945z" fill="#3E3A39"/><path d="M534.612 536.091a33.812 33.812 0 0 0-26.543 14.37 42.265 42.265 0 0 0 54.015-1.775 33.812 33.812 0 0 0-27.472-12.595z" fill="#FFF"/><path d="M726.665 158.24a16.906 16.906 0 1 0 8.453-14.708 16.906 16.906 0 0 0-8.453 14.709zm0 0" fill="#F8B62D"/><path d="M960.983 341.84l-8.453 12.257-12.257-8.453a7.354 7.354 0 0 0-8.453 12.004l12.257 8.453-8.453 12.257a7.354 7.354 0 1 0 12.003 8.453l8.453-12.257 12.257 8.453a7.354 7.354 0 0 0 8.453-12.004l-12.342-8.453 8.453-12.256a7.354 7.354 0 0 0-1.775-10.229 7.27 7.27 0 0 0-10.143 1.86zM691.077 36.349l-8.453 12.257-12.764-8.707a7.354 7.354 0 0 0-8.453 11.92l12.257 8.452-8.453 12.257a7.354 7.354 0 1 0 12.003 8.453l8.453-12.257 12.257 8.453a7.354 7.354 0 1 0 8.453-11.919l-12.256-8.453 8.453-12.257a7.354 7.354 0 1 0-12.004-8.453z" fill="#F7E42F"/><path d="M895.979 225.273a34.404 34.404 0 1 1-8.453-47.928 34.488 34.488 0 0 1 8.453 47.928zm-42.265-29.923a17.413 17.413 0 1 0 24.344-4.142 17.413 17.413 0 0 0-24.344 4.142zM495.39 25.866h-17.413V8.453a8.453 8.453 0 1 0-16.907 0v17.413h-17.413a8.453 8.453 0 0 0 0 16.906h17.413v17.414a8.453 8.453 0 0 0 16.907 0V42.688h17.413a8.453 8.453 0 1 0 0-16.906zm-176.669 89.01a12.68 12.68 0 1 0 12.68-12.679 12.68 12.68 0 0 0-12.68 12.68zM78.74 359a34.404 34.404 0 1 1 34.404-34.404A34.488 34.488 0 0 1 78.74 359zm0-51.901a17.413 17.413 0 1 0 17.498 17.497 17.413 17.413 0 0 0-17.413-17.413zm0 0" fill="#F8B62D"/><path d="M151.351 157.564a4.65 4.65 0 0 0-6.593 0 4.734 4.734 0 0 0 0 6.594l15.047 15.046a4.734 4.734 0 0 0 6.593 0 4.65 4.65 0 0 0 0-6.593zm39.645 39.814a4.734 4.734 0 0 0-6.593 0 4.65 4.65 0 0 0 0 6.594l15.046 15.046a4.65 4.65 0 0 0 6.594-6.593zm-3.296-16.906a4.734 4.734 0 0 0 3.296-1.352l15.047-15.047a4.734 4.734 0 0 0 0-6.593 4.65 4.65 0 0 0-6.594 0l-15.046 15.046a4.65 4.65 0 0 0 0 6.594 4.734 4.734 0 0 0 3.297 1.352zm-27.98 16.906l-15.046 15.047a4.65 4.65 0 0 0 6.593 6.593l15.046-15.046a4.65 4.65 0 0 0-6.593-6.594zm2.959-9.045a4.65 4.65 0 0 0-4.65-4.649h-21.217a4.65 4.65 0 0 0 0 9.299h21.133a4.65 4.65 0 0 0 4.734-4.65zm51.394-4.733h-21.302a4.65 4.65 0 0 0 0 9.298h21.217a4.65 4.65 0 0 0 0-9.298zm-38.715-38.715a4.65 4.65 0 0 0-4.65 4.65v21.216a4.65 4.65 0 0 0 9.3 0V149.45a4.65 4.65 0 0 0-4.65-4.65zm0 56.128a4.65 4.65 0 0 0-4.65 4.65v21.216a4.65 4.65 0 1 0 9.3 0v-21.217a4.565 4.565 0 0 0-4.65-4.649zm0 0" fill="#FAEE00"/><path d="M579.582 945.049c-75.063 43.533-183.262-2.79-183.262-2.79s13.61-116.82 88.757-160.607 183.262 2.79 183.262 2.79-13.694 117.074-88.757 160.607z" fill="#FFF"/><path d="M563.606 912.927c-60.524 35.08-147.675-2.282-147.675-2.282s10.99-94.167 71.513-129.247 147.674 2.282 147.674 2.282-10.989 93.829-71.512 129.247z" fill="#8ED420"/><path d="M634.611 783.089h.507s-10.989 94.166-71.512 129.246c-39.899 23.162-91.378 14.793-121.893 6.425 6.762 2.79 89.18 35.672 147.252 2.029 60.524-35.08 71.512-129.247 71.512-129.247a222.4 222.4 0 0 0-25.866-8.453z" fill="#86C617"/><path d="M586.598 957.221c-80.304 46.492-191.208 0-195.857-2.029a14.117 14.117 0 0 1-8.453-14.623c.592-5.072 15.385-124.429 95.689-170.92s191.207 0 195.856 2.028a14.117 14.117 0 0 1 8.453 14.624c-.591 5.072-15.384 124.428-95.688 170.92zm-174.555-24.176c27.557 9.637 105.156 31.784 160.607 0s74.64-109.889 80.05-139.052c-27.556-9.636-105.155-31.783-160.607 0s-74.725 110.481-80.05 139.052z" fill="#86C617"/><path d="M379.752 863.646c48.605 29.586 120.118.76 120.118.76s-7.27-76.753-55.79-106.338-120.118-.761-120.118-.761 7.185 76.753 55.79 106.339z" fill="#FFF"/><path d="M390.91 842.598c39.138 23.838 96.788.676 96.788.676s-5.833-61.876-44.97-85.713-96.788-.677-96.788-.677 5.58 61.876 44.97 85.714z" fill="#8ED420"/><path d="M346.025 756.8s5.832 61.876 44.97 85.713c25.782 15.723 59.678 10.99 79.712 5.918-4.48 1.69-59.171 22.062-96.45-.761-39.137-23.838-44.97-85.714-44.97-85.714a145.73 145.73 0 0 1 16.738-5.156z" fill="#86C617"/><path d="M314.833 758.152a9.214 9.214 0 0 1 5.748-9.467c3.128-1.268 76.077-30.177 128.402 1.437s59.932 109.89 60.185 113.355a9.214 9.214 0 0 1-5.748 9.467c-3.127 1.268-76.077 30.178-128.401-1.437s-60.186-109.974-60.186-113.355zm124.513 7.862c-35.756-21.81-86.897-8.453-105.07-2.452 3.127 18.935 14.707 70.498 50.717 92.223s86.897 8.453 105.071 2.451c-3.465-18.85-14.623-70.414-50.802-92.222z" fill="#86C617"/><path d="M316.524 386.473a16.906 16.906 0 0 0 27.388-3.804c16.398-31.446 54.606-83.939 126.795-81.572a16.906 16.906 0 0 0 1.099-33.812c-66.103-2.113-123.583 33.812-157.65 99.83a16.906 16.906 0 0 0 2.368 19.358zm-39.476 80.81a16.906 16.906 0 0 0 31.023-3.888 260.015 260.015 0 0 1 11.496-33.136 16.906 16.906 0 1 0-31.107-13.271 294.08 294.08 0 0 0-13.018 37.447 16.906 16.906 0 0 0 1.606 12.848z" fill="#FFF"/></svg>