<svg class="icon" viewBox="0 0 1024 1024" xmlns="http://www.w3.org/2000/svg" width="200" height="200"><defs><style/></defs><path d="M161.376 922.346a291.703 101.654 0 1 0 583.407 0 291.703 101.654 0 1 0-583.407 0z" fill="#FFED92"/><path d="M482.338 167.983C544.215 90.726 661.603 65.092 661.603 65.092s59.49 108.372 39.601 206.667L635.35 416.727 414.98 316.575z" fill="#FFF"/><path d="M527.42 173.199c48.352-60.64 140.636-80.705 140.636-80.705s46.673 85.036 31.115 162.116l-51.446 113.676-172.9-78.76z" fill="#8ED420"/><path d="M627.66 433.875L407.203 333.547a18.651 18.651 0 0 1-8.84-24.75l67.18-148.327a18.74 18.74 0 0 1 2.387-3.89C532.723 74.992 652.587 48.12 657.625 47.06a18.651 18.651 0 0 1 20.331 8.84c2.564 4.684 62.584 115.532 41.546 219.307a19.358 19.358 0 0 1-1.326 3.978L652.322 424.33a18.651 18.651 0 0 1-24.75 8.84zM651.615 87.28c-31.38 8.84-108.284 35.888-153.189 90.87l-58.694 129.145 186.425 84.859 57.191-125.963c13.436-70.804-17.679-148.769-31.733-178.911z" fill="#86C617"/><path d="M445.036 598.555S609.273 300.93 422.14 94.704c-167.685 222.49 22.895 503.851 22.895 503.851z" fill="#FFF"/><path d="M402.43 579.197s116.15-319.637 394.418-313.98c-57.28 272.876-394.419 313.98-394.419 313.98z" fill="#FFF"/><path d="M495.067 440.328s106.074-220.545-36.595-361.27c-111.643 166.624 36.595 361.27 36.595 361.27zm-14.585 122.074s78.318-264.39 303.813-273.406c-32.97 223.728-303.813 273.406-303.813 273.406z" fill="#8ED420"/><path d="M458.118 577.87c-2.121-3.182-212.148-319.9-24.22-569.705A20.242 20.242 0 0 1 449.19.033a19.712 19.712 0 0 1 15.911 6.63c210.203 231.594 29.436 566.258 27.58 569.617a20.242 20.242 0 0 1-16.796 10.43h-.883a20.242 20.242 0 0 1-16.884-8.84zm14.85-54.45c35.8-82.65 110.229-302.4-21.391-470.35-115.62 179.088-21.392 391.236 21.391 470.35z" fill="#86C617"/><path d="M387.844 590.776a18.651 18.651 0 0 1-2.917-17.679c1.238-3.27 121.897-326.177 404.672-326.177h7.69a18.651 18.651 0 0 1 17.68 22.54C755.566 552.326 408.351 597.584 404.55 598.026h-2.299a18.74 18.74 0 0 1-14.408-7.249zm45.7-36.33c81.058-17.679 285.34-80.97 339.348-270.047-195.883 9.99-303.548 195.088-339.348 270.047z" fill="#86C617"/><path d="M275.936 939.14l-18.651-8.839a254.931 254.931 0 0 1-126.317-337.138l63.291-139.399a254.312 254.312 0 0 1 337.05-126.67l18.651 8.84a254.931 254.931 0 0 1 126.228 337.315l-63.29 139.399A254.312 254.312 0 0 1 275.936 939.14z" fill="#FFF"/><path d="M308.023 942.677l-17.679-8.221a245.826 245.826 0 0 1-122.073-325.47l61.08-134.36A245.296 245.296 0 0 1 553.939 352.64l17.68 8.221a245.826 245.826 0 0 1 122.426 325.382l-61.08 134.36a245.296 245.296 0 0 1-324.94 122.074z" fill="#FFDC0B"/><path d="M608.478 381.192a245.826 245.826 0 0 1 20.33 239.815l-61.08 134.36a245.296 245.296 0 0 1-324.94 121.986l-17.679-8.221a246.534 246.534 0 0 1-36.507-20.508 244.235 244.235 0 0 0 101.389 85.567l17.679 8.22a245.296 245.296 0 0 0 325.028-121.985l61.081-134.36a245.915 245.915 0 0 0-85.301-304.874z" fill="#FFD522"/><path d="M345.331 538.688a22.452 22.452 0 1 0 17.79-41.23 22.452 22.452 0 1 0-17.79 41.23zM511.241 610.235a22.452 22.452 0 1 0 17.79-41.23 22.452 22.452 0 1 0-17.79 41.23zM406.584 624.808a55.777 55.777 0 0 1-29.436-73.279l4.155-9.635a11.226 11.226 0 0 1 14.762-5.834l81.677 35.358a11.226 11.226 0 0 1 5.834 14.762l-4.155 9.635a55.777 55.777 0 0 1-72.837 28.993z" fill="#3E3A39"/><path d="M420.639 592.28a35.358 35.358 0 0 0-31.557 1.767 44.197 44.197 0 0 0 51.887 22.364 35.358 35.358 0 0 0-20.33-24.132z" fill="#FFF"/><path d="M895.054 349.988a17.679 17.679 0 1 0 15.735-8.22 17.679 17.679 0 0 0-15.735 8.22zm0 0" fill="#F8B62D"/><path d="M830.26 635.858a17.679 17.679 0 1 0-14.761-9.9 17.679 17.679 0 0 0 14.762 9.9zm0 0" fill="#FAEE00"/><path d="M885.42 462.427a35.977 35.977 0 1 1-33.59-38.098 36.065 36.065 0 0 1 33.5 38.275zm-54.098-3.624a18.21 18.21 0 1 0 19.358-16.795 18.21 18.21 0 0 0-19.447 16.971zm71.246 68.329l8.84 16-16 8.839a8.84 8.84 0 1 0 8.84 15.47l15.999-8.84 8.84 16a8.84 8.84 0 0 0 15.468-8.84l-8.839-16 16-8.84a8.84 8.84 0 0 0-8.84-15.469l-16 8.84-8.839-16a8.84 8.84 0 1 0-15.47 8.84zm0 0" fill="#F8B62D"/><path d="M257.992 189.994l-13.436-8.398 8.84-13.613a7.69 7.69 0 0 0-12.906-8.22l-8.398 13.259-14.055-7.956a7.69 7.69 0 1 0-8.22 12.906l13.259 8.397-8.398 13.26a7.69 7.69 0 0 0 12.906 8.22l8.84-13.347 13.259 8.397a7.69 7.69 0 0 0 10.519-2.386 7.602 7.602 0 0 0-2.475-10.431z" fill="#F7E42F"/><path d="M126.814 390.562a35.977 35.977 0 1 1 35.977-35.977 36.065 36.065 0 0 1-35.977 35.977zm0-54.275a18.21 18.21 0 1 0 18.21 18.21 18.21 18.21 0 0 0-18.21-18.563zm0 0" fill="#F8B62D"/><path d="M87.832 197.507a4.862 4.862 0 0 0-6.895 0 4.95 4.95 0 0 0 0 6.895l15.646 15.734a4.95 4.95 0 0 0 6.895 0 4.862 4.862 0 0 0 0-6.894zm41.81 41.192a4.95 4.95 0 0 0-6.894 0 4.862 4.862 0 0 0 0 6.895l15.734 16.088a4.862 4.862 0 0 0 6.895-6.895zm-3.447-17.679a4.95 4.95 0 0 0 3.447-.795l15.735-15.735a4.95 4.95 0 0 0 0-6.894 4.862 4.862 0 0 0-6.895 0l-16.088 15.734a4.862 4.862 0 0 0 0 6.895 4.95 4.95 0 0 0 3.447 1.414zM96.583 238.7l-15.646 16.087a4.862 4.862 0 0 0 6.895 6.895l15.292-15.646a4.862 4.862 0 0 0-6.541-7.337zm3.094-8.84a4.862 4.862 0 0 0-4.862-4.862H72.628a4.862 4.862 0 0 0 0 9.723h21.656a4.862 4.862 0 0 0 5.393-4.861zm53.744-4.95h-22.276a4.862 4.862 0 0 0 0 9.723h22.276a4.862 4.862 0 0 0 0-9.723zm-40.485-40.662a4.862 4.862 0 0 0-4.862 4.862v22.187a4.862 4.862 0 0 0 9.724 0V189.11a4.862 4.862 0 0 0-4.862-4.862zm0 58.694a4.862 4.862 0 0 0-4.862 4.862v22.187a4.862 4.862 0 0 0 9.724 0V247.54a4.773 4.773 0 0 0-4.862-4.862zm0 0" fill="#FAEE00"/><path d="M326.498 413.81l9.458 39.247 39.248-9.458m212.236 84.417l9.458 39.159 39.248-9.458m-399.28 35.534l9.37 39.16 39.247-9.459m204.104 117.035l9.458 39.247 39.247-9.458M196.027 748.12l9.458 39.248 39.248-9.459m98.118-62.406l9.458 39.247 39.16-9.458M383.6 845.973l9.458 39.247 39.16-9.458" fill="#F4CC03"/><path d="M268.157 956.113l-18.651-8.84a274.024 274.024 0 0 1-135.51-362.42l63.291-139.398A273.052 273.052 0 0 1 539 310.388l18.652 8.84a274.024 274.024 0 0 1 135.51 361.446l-63.292 139.664a272.522 272.522 0 0 1-361.712 135.775zm75.048-617.881a234.512 234.512 0 0 0-131.886 123.753l-63.29 139.134A236.456 236.456 0 0 0 264.975 913.77l18.651 8.84a235.66 235.66 0 0 0 312.211-117.654l63.291-139.399a236.456 236.456 0 0 0-116.946-312.652l-18.652-8.84a233.893 233.893 0 0 0-180.325-6.188zm-67.446 601.086z" fill="#F4CC03"/><path d="M404.462 355.646a12.729 12.729 0 0 1 3.448 24.485 250.423 250.423 0 0 0-140.902 119.51 12.729 12.729 0 1 1-22.452-11.314 275.969 275.969 0 0 1 154.868-131.974 12.64 12.64 0 0 1 5.038-.707z" fill="#FFF"/></svg>