<svg class="icon" viewBox="0 0 1024 1024" xmlns="http://www.w3.org/2000/svg" width="200" height="200"><defs><style/></defs><path d="M219.971 927.32a277.432 96.68 0 1 0 554.864 0 277.432 96.68 0 1 0-554.864 0z" fill="#F9AEAA"/><path d="M642.424 870.32C708 799.953 788.286 701.59 831.498 602.808a184.955 184.955 0 0 0-51.871-216.649c-56.495-46.827-139.305-95.083-240.862-95.083s-184.45 48.256-240.945 95.083a184.955 184.955 0 0 0-51.871 216.65c42.792 98.782 123.415 197.144 188.99 267.51a141.827 141.827 0 0 0 207.485 0z" fill="#FFF"/><path d="M538.681 934.717a161.583 161.583 0 0 1-117.698-51.282c-62.885-67.257-147.46-169.654-192.605-272.892a205.3 205.3 0 0 1 57.252-239.18c54.73-45.398 142.92-99.54 253.22-99.54s198.405 54.142 253.22 99.54a205.3 205.3 0 0 1 57.25 239.18C804.008 713.78 719.433 815.506 656.549 883.435a161.583 161.583 0 0 1-117.867 51.282zm0-624.305c-98.614-.084-178.733 49.265-228.587 90.627a166.627 166.627 0 0 0-46.575 194.035c43.044 98.278 124.677 196.808 185.543 262.467a122.574 122.574 0 0 0 179.322 0c60.867-65.323 142.92-163.853 185.46-262.047a166.627 166.627 0 0 0-46.576-194.455c-49.77-41.362-129.972-90.711-228.587-90.711z" fill="#FF4C2E"/><path d="M656.884 851.908c59.438-63.725 132.075-152.84 171.251-242.29a168.14 168.14 0 0 0-46.995-196.22c-51.199-42.035-126.105-86.088-218.583-86.088s-167.047 43.716-218.582 86.088a168.14 168.14 0 0 0-46.239 196.136c39.177 89.45 111.813 178.565 171.251 242.29a128.46 128.46 0 0 0 187.897.084z" fill="#FF4C2E"/><path d="M781.14 413.314c-51.199-42.035-126.105-86.088-218.583-86.088a290.126 290.126 0 0 0-37.831 2.522c74.822 9.836 136.446 47.163 180.414 83.566a168.14 168.14 0 0 1 47.332 196.22c-39.177 89.45-111.813 178.565-171.251 242.29a127.787 127.787 0 0 1-56.159 35.226 128.46 128.46 0 0 0 131.822-35.226c59.438-63.725 132.075-152.84 171.251-242.29a168.14 168.14 0 0 0-46.995-196.22z" fill="#DD3D2C"/><path d="M464.7 299.735a263.897 263.897 0 0 0-3.027 37.915c0 100.885 41.194 140.818 77.008 177.977 35.814-37.159 77.009-77.008 77.009-177.977a264.149 264.149 0 0 0-3.027-37.915 321.064 321.064 0 0 0-148.048 0z" fill="#FFF"/><path d="M493.956 269.05a263.897 263.897 0 0 0-3.447 38.083c0 100.884 41.195 140.818 77.008 177.977 35.814-37.16 77.009-77.009 77.009-177.977a264.149 264.149 0 0 0-2.69-38.084 321.064 321.064 0 0 0-148.048 0z" fill="#8ED420"/><path d="M494.376 726.896a13.03 13.03 0 0 1-13.03-13.031v-6.978a13.03 13.03 0 0 1 26.061 0v6.978a13.03 13.03 0 0 1-13.03 13.03zm164.274 0a13.03 13.03 0 0 1-13.031-13.031v-6.978a13.03 13.03 0 0 1 26.062 0v6.978a13.03 13.03 0 0 1-13.031 13.03zm-84.07 67.256a13.03 13.03 0 0 1-13.032-13.03v-6.979a13.03 13.03 0 0 1 26.062 0v6.978a13.03 13.03 0 0 1-13.03 13.03zM416.442 580.866a13.03 13.03 0 0 1-13.03-13.031v-7.062a13.03 13.03 0 0 1 26.061 0v6.978a13.03 13.03 0 0 1-13.03 13.115zm362.175 0a13.03 13.03 0 0 1-13.031-13.031v-7.062a13.03 13.03 0 0 1 26.062 0v6.978a13.03 13.03 0 0 1-13.031 13.115z" fill="#3E3A39"/><path d="M357.678 481.495c46.743-22.027 99.203-44.305 135.185-139.053a282.308 282.308 0 0 0 13.283-49.6 375.037 375.037 0 0 0-174.782 67.844c-4.287 51.283 11.938 87.265 26.314 120.809zm362.09 0c14.545-33.544 30.602-69.526 26.315-120.81A375.037 375.037 0 0 0 571.3 292.842a282.308 282.308 0 0 0 13.283 49.601c35.814 94.748 88.442 117.026 135.185 139.053z" fill="#FFF"/><path d="M386.935 450.977c46.659-22.194 99.287-44.641 135.185-139.052a282.308 282.308 0 0 0 13.283-49.601 375.037 375.037 0 0 0-174.782 67.844c-4.624 51.367 12.19 87.181 26.314 120.81zm355.785 0c13.199-30.77 28.08-63.641 24.128-110.72a343.847 343.847 0 0 0-160.238-62.212 258.768 258.768 0 0 0 12.19 45.482c32.956 86.508 81.212 107.19 123.92 127.45z" fill="#8ED420"/><path d="M357.678 483.933a19.252 19.252 0 0 1-17.739-11.686l-1.429-3.363c-14.46-33.628-30.938-72.132-26.398-126.526a19.252 19.252 0 0 1 8.407-14.207 391.515 391.515 0 0 1 183.862-71.208 19 19 0 0 1 16.057 6.053 19.252 19.252 0 0 1 4.792 16.814 297.609 297.609 0 0 1-14.208 53.048c-37.663 99.12-95.083 126.106-141.238 147.796l-3.783 1.765a19.336 19.336 0 0 1-8.323 1.514zm-7.65-129.384a195.127 195.127 0 0 0 17.57 84.07c39.345-19.252 78.69-44.39 107.274-119.8q3.447-9.08 6.39-19.673a360.073 360.073 0 0 0-131.234 55.403zm369.74 129.384a19.336 19.336 0 0 1-8.406-1.85l-3.783-1.765c-46.155-21.69-103.575-48.761-141.239-147.796a298.45 298.45 0 0 1-14.207-53.048 19.252 19.252 0 0 1 20.933-22.615 391.515 391.515 0 0 1 184.03 71.04 19.252 19.252 0 0 1 8.407 14.207c4.54 54.394-11.854 92.477-26.398 126.526l-1.43 3.363a19.252 19.252 0 0 1-17.738 11.686zM596.27 298.978q2.858 10.509 6.389 19.673c28.668 75.663 67.929 100.884 107.273 119.8a195.127 195.127 0 0 0 17.571-84.07 360.073 360.073 0 0 0-131.318-55.235z" fill="#86C617"/><path d="M538.681 518.065a19.252 19.252 0 0 1-13.871-5.885l-2.859-2.942c-26.65-27.575-56.915-58.85-71.291-115.68a19.252 19.252 0 0 1 37.327-9.417 188.233 188.233 0 0 0 50.442 86.845 186.804 186.804 0 0 0 52.964-93.738 19.252 19.252 0 1 1 37.664 8.407c-13.367 61.96-45.146 94.83-73.225 123.835l-2.859 2.943a19.168 19.168 0 0 1-14.292 5.632z" fill="#86C617"/><path d="M523.465 580.11a21.354 21.354 0 1 1-16.142-15.134 21.438 21.438 0 0 1 16.142 15.133zm171.671-5.886a21.354 21.354 0 1 1-15.89-14.88 21.438 21.438 0 0 1 15.89 14.88zM579.12 655.772a53.889 53.889 0 0 1-42.708-51.787v-8.407a10.509 10.509 0 0 1 10.173-10.845l84.91-2.774a10.509 10.509 0 0 1 10.342 9.836v10.088a53.048 53.048 0 0 1-62.717 53.89z" fill="#3E3A39"/><path d="M590.048 622.817a33.628 33.628 0 0 0-10.34 1.933 10.509 10.509 0 0 0 1.093 20.261 42.455 42.455 0 0 0 19.756-.672 10.509 10.509 0 0 0 0-20.261 33.628 33.628 0 0 0-10.509-1.261z" fill="#FFF"/><path d="M865.462 197.421a16.814 16.814 0 1 0-3.867-16.814 16.814 16.814 0 0 0 3.867 16.814zM750.37 114.024l-12.358 8.407-8.407-12.359a7.314 7.314 0 0 0-12.022 8.407l8.407 12.359-12.358 8.407a7.314 7.314 0 1 0 8.407 12.022l12.274-8.323 8.407 12.358a7.314 7.314 0 0 0 12.022-8.407l-8.407-12.442 12.358-8.407a7.314 7.314 0 0 0 1.85-10.089 7.23 7.23 0 0 0-10.089-1.765zm208.747 269.529l-12.359 8.407-8.407-12.358a7.314 7.314 0 0 0-12.022 8.407l8.407 12.358-12.358 8.407a7.314 7.314 0 1 0 8.407 12.022l12.358-8.407 8.407 12.358a7.314 7.314 0 1 0 12.022-8.407l-8.407-12.358 12.359-8.407a7.314 7.314 0 1 0-8.407-12.022z" fill="#F7E42F"/><path d="M870.423 332.69a34.217 34.217 0 1 1 8.911-47.583 34.3 34.3 0 0 1-8.911 47.583zm-29.173-42.54a17.318 17.318 0 1 0 24.128 4.54 17.318 17.318 0 0 0-24.128-4.54zm0 0" fill="#F8B62D"/><path d="M167.68 432.818a16.814 16.814 0 1 0-3.868-16.814 16.814 16.814 0 0 0 3.867 16.814zm-74.487-7.23l-12.358 8.407-8.407-12.358a7.314 7.314 0 0 0-12.022 8.407l8.407 12.358-12.359 8.407a7.314 7.314 0 1 0 8.407 12.022l12.359-8.407 8.407 12.358a7.314 7.314 0 1 0 12.022-8.407l-8.575-12.778 12.358-8.407a7.314 7.314 0 1 0-8.407-12.022z" fill="#F7E42F"/><path d="M181.047 332.69a34.217 34.217 0 1 1 8.911-47.583 34.3 34.3 0 0 1-8.911 47.583zm-29.173-42.54a17.318 17.318 0 1 0 24.128 4.54 17.318 17.318 0 0 0-24.128-4.54zm0 0" fill="#F8B62D"/><path d="M99.498 549.003a4.624 4.624 0 0 0-6.557 0 4.708 4.708 0 0 0 0 6.558l14.964 14.964a4.708 4.708 0 0 0 6.558 0 4.624 4.624 0 0 0 0-6.557zm39.513 39.513a4.708 4.708 0 0 0-6.557 0 4.624 4.624 0 0 0 0 6.558l14.964 14.964a4.624 4.624 0 0 0 6.558-6.557zm-3.278-16.814a4.708 4.708 0 0 0 3.278-1.345l15.217-14.712a4.708 4.708 0 0 0 0-6.558 4.624 4.624 0 0 0-6.557 0l-15.217 14.965a4.624 4.624 0 0 0 0 6.557 4.708 4.708 0 0 0 3.279 1.093zm-27.828 16.814l-14.964 14.965a4.624 4.624 0 0 0 6.557 6.557l14.965-14.964a4.624 4.624 0 0 0-6.558-6.558zm2.943-8.995a4.624 4.624 0 0 0-4.624-4.624H85.122a4.624 4.624 0 0 0 0 9.247h21.018a4.624 4.624 0 0 0 4.708-4.623zm51.115-4.708h-21.186a4.624 4.624 0 0 0 0 9.247h21.102a4.624 4.624 0 0 0 0-9.247zm-38.505-38.42a4.624 4.624 0 0 0-4.623 4.623v21.102a4.624 4.624 0 1 0 9.247 0v-21.102a4.624 4.624 0 0 0-4.624-4.623zm0 55.822a4.624 4.624 0 0 0-4.623 4.624v21.102a4.624 4.624 0 1 0 9.247 0v-21.018a4.54 4.54 0 0 0-4.624-4.624zm0 0" fill="#FAEE00"/><path d="M679.079 214.488c-84.07 198.405-248.176 169.065-290.295 158.472a277.432 277.432 0 0 1 36.318-38.756c-141.574-12.78-221.777-162.592-221.777-162.592A395.13 395.13 0 0 1 395.93 73.67a140.818 140.818 0 0 1-26.314-53.637c108.45-7.23 253.724 29.172 309.463 194.455z" fill="#FFF"/><path d="M679.079 225.669C607.115 395.743 466.38 370.522 430.23 361.526a237.583 237.583 0 0 1 31.106-33.628c-121.314-10.593-190.083-139.052-190.083-139.052a338.467 338.467 0 0 1 165.114-84.07 120.725 120.725 0 0 1-22.615-45.902c92.982-6.138 217.49 25.22 265.326 166.795z" fill="#8ED420"/><path d="M383.235 391.455a19.252 19.252 0 0 1-10.424-29.929A176.548 176.548 0 0 1 385 346.478C258.896 312.85 189.285 186.24 186.091 180.355a19.252 19.252 0 0 1 3.867-23.203 423.378 423.378 0 0 1 174.446-96.26 123.583 123.583 0 0 1-13.956-37.664A19.252 19.252 0 0 1 368.355.78c59.438-3.951 258.768-.757 328.967 207.57a19.252 19.252 0 0 1-.504 13.619C608.88 429.876 435.19 404.402 384.076 391.708zm47.332-75.663a19.252 19.252 0 0 1 7.23 32.956s-5.464 4.792-12.19 11.433c64.818 7.567 170.158-5.632 232.79-146.45-54.73-151.41-186.72-174.95-262.047-175.287a147.88 147.88 0 0 0 14.629 23.12 19.252 19.252 0 0 1-12.359 30.938 378.316 378.316 0 0 0-170.578 82.64c22.615 35.058 93.066 130.31 198.742 139.978a19.168 19.168 0 0 1 3.783.672z" fill="#86C617"/><path d="M522.792 234.833a19.252 19.252 0 0 1 6.978-37.664l20.765 1.513a19.252 19.252 0 1 1-2.606 38.42l-21.186-1.68a18.832 18.832 0 0 1-3.95-.59zm156.96 3.446a19.252 19.252 0 0 1 17.318-33.628 410.095 410.095 0 0 0 49.097 13.956 19.252 19.252 0 0 1-7.735 37.748 444.311 444.311 0 0 1-53.889-15.553 19.42 19.42 0 0 1-4.792-2.523z" fill="#86C617"/><path d="M319.847 499.738a12.106 12.106 0 0 1 22.614 6.978 238.171 238.171 0 0 0 46.07 169.485 12.106 12.106 0 1 1-18.999 14.965 262.467 262.467 0 0 1-51.115-186.72 12.022 12.022 0 0 1 1.43-4.708z" fill="#FFF"/></svg>