<svg class="icon" viewBox="0 0 1024 1024" xmlns="http://www.w3.org/2000/svg" width="200" height="200"><defs><style/></defs><path d="M287.912 926.17a280.73 97.83 0 1 0 561.459 0 280.73 97.83 0 1 0-561.459 0z" fill="#D5ED9F"/><path d="M186.935 406.65a301.231 260.143 90 1 0 520.285 0 301.231 260.143 90 1 0-520.285 0z" fill="#FFF"/><path d="M228.959 417.114a301.231 260.143 90 1 0 520.285 0 301.231 260.143 90 1 0-520.285 0z" fill="#8BCE09"/><path d="M489.102 115.883a226.965 226.965 0 0 0-59.55 7.996c115.015 31.221 200.68 150.574 200.68 292.98s-85.665 262.27-200.68 293.49a226.965 226.965 0 0 0 59.55 7.996c143.682 0 260.142-134.92 260.142-301.23s-116.46-301.232-260.142-301.232z" fill="#83B704"/><path d="M447.247 725.916c-153.125 0-278.262-143.257-278.262-319.35S293.697 87.3 447.247 87.3 725.34 230.557 725.34 406.65 600.372 725.917 447.247 725.917zm0-602.547c-133.474 0-242.107 127.009-242.107 283.196s108.463 283.197 242.107 283.197S689.185 562.753 689.185 406.65 580.636 123.454 447.247 123.454z" fill="#A8DB46"/><path d="M447.247 123.454a18.035 18.035 0 0 1-17.014-23.564c11.06-34.708 28.584-57.932 52.063-69.162 38.111-18.12 81.837-1.02 116.97 12.676 14.633 5.784 39.218 15.397 44.917 12.42s2.637-3.148 2.637-16.078a18.035 18.035 0 1 1 36.155 0c0 8.507 0 33.347-18.46 45.937-20.502 13.952-47.384 3.488-78.434-8.507s-64.228-25.52-88.217-13.696c-14.122 6.72-25.521 22.714-33.177 47.554a18.12 18.12 0 0 1-17.44 12.42z" fill="#A8DB46"/><path d="M549.756 424.685a18.035 18.035 0 0 1-18.035-18.034c0-175.499-49.255-283.197-84.644-283.197a18.035 18.035 0 1 1 0-36.154c78.434 0 120.799 164.524 120.799 319.35a18.035 18.035 0 0 1-18.12 18.035zM363.54 249.527a18.63 18.63 0 0 1-4.254-.51 18.12 18.12 0 0 1-13.27-21.863c2.977-12.165 6.295-23.905 9.868-34.794a18.035 18.035 0 1 1 34.028 11.23c-3.233 9.953-6.296 20.757-9.103 32.07a18.12 18.12 0 0 1-17.269 13.867zm11.144 388.513a18.12 18.12 0 0 1-17.014-12.25c-20.161-58.783-31.305-136.792-31.305-219.48a866.093 866.093 0 0 1 5.359-97.234 18.035 18.035 0 1 1 35.9 4.083 826.62 826.62 0 0 0-5.445 93.492c0 78.859 10.378 152.7 29.349 207.824a18.035 18.035 0 0 1-17.014 23.905z" fill="#A8DB46"/><path d="M785.654 184.279a423.391 423.391 0 0 1-598.72 598.379z" fill="#FFF"/><path d="M806.24 203.505a418.372 418.372 0 0 1-593.955 589.531z" fill="#A8DB46"/><path d="M486.294 924.894a440.065 440.065 0 0 1-312.12-129.135 18.035 18.035 0 0 1 0-25.521l598.72-598.72a18.12 18.12 0 0 1 12.76-5.274 18.035 18.035 0 0 1 12.76 5.274 441.256 441.256 0 0 1-312.12 753.376zM212.711 782.658A405.271 405.271 0 0 0 785.314 210.14z" fill="#8BCE09"/><path d="M744.225 263.734a316.203 316.203 0 0 1-448.657 445.934z" fill="#F46473"/><path d="M744.225 263.734l-1.616 1.531a316.118 316.118 0 0 1-445.594 442.361l-1.447 1.447a316.203 316.203 0 0 0 448.657-445.34z" fill="#EA5369"/><path d="M573.576 590.4a19.48 19.48 0 0 1-13.782-5.699l-8.507-8.507a19.48 19.48 0 0 1 27.563-27.562l8.507 8.507a19.48 19.48 0 0 1-13.781 33.262zm50.53-121.989h-12.25a19.48 19.48 0 0 1 0-38.962h12.166a19.48 19.48 0 1 1 0 38.962zm-172.52 172.521a19.48 19.48 0 0 1-19.481-19.48v-12.166a19.48 19.48 0 0 1 38.962 0v12.165a19.48 19.48 0 0 1-19.481 19.481zM382.68 308.225a20.076 20.076 0 1 1-14.888-13.951 20.076 20.076 0 0 1 14.888 13.951zm161.036-5.19a20.076 20.076 0 1 1-14.887-13.78 20.076 20.076 0 0 1 14.887 13.78zm-108.804 76.308a50.531 50.531 0 0 1-40.067-48.574v-8.507a9.868 9.868 0 0 1 9.527-10.124l79.71-2.637a9.868 9.868 0 0 1 10.124 9.528v9.528a49.766 49.766 0 0 1-59.294 50.786z" fill="#3E3A39"/><path d="M445.206 348.803a31.476 31.476 0 0 0-9.698 1.872 9.868 9.868 0 0 0 1.02 18.97 39.813 39.813 0 0 0 18.546-.595 9.868 9.868 0 0 0 0-18.97 31.476 31.476 0 0 0-9.868-1.277z" fill="#FFF"/><path d="M719.47 137.49l-14.887-2.381 2.382-14.887a7.401 7.401 0 0 0-14.547-2.297l-2.382 14.887-14.887-2.382a7.401 7.401 0 1 0-2.467 14.206l14.887 2.382-2.127 15.313a7.401 7.401 0 0 0 14.547 2.297l2.467-15.058 14.887 2.382a7.401 7.401 0 0 0 8.507-6.125 7.316 7.316 0 0 0-6.125-8.507zm275.625 198.213l-14.887-2.382 2.382-14.888a7.401 7.401 0 0 0-14.547-2.296l-2.382 14.887-14.887-2.382a7.401 7.401 0 1 0-2.297 14.547l14.887 2.382-2.382 14.887a7.401 7.401 0 1 0 14.547 2.297l2.382-14.887 14.887 2.381a7.401 7.401 0 1 0 2.297-14.546z" fill="#F7E42F"/><path d="M897.095 202.654a34.623 34.623 0 1 1 39.642-28.839 34.708 34.708 0 0 1-39.642 28.839zm8.507-51.552a17.524 17.524 0 1 0 14.632 20.076 17.524 17.524 0 0 0-14.632-20.076zm-801.1 204.252l-14.547 10.038-9.868-14.462a8.507 8.507 0 1 0-13.951 9.698l10.038 14.377-14.377 10.123a8.507 8.507 0 0 0 9.613 13.866l14.377-10.038 10.123 14.462a8.507 8.507 0 0 0 13.867-9.698l-10.039-14.462 14.377-10.038a8.507 8.507 0 1 0-9.698-13.951zm65.334 321.562a34.623 34.623 0 1 1 8.507-48.234 34.708 34.708 0 0 1-8.507 48.234zm-29.775-42.534a17.524 17.524 0 1 0 24.415 4.423 17.524 17.524 0 0 0-24.415-4.423zm0 0" fill="#F8B62D"/><path d="M27.43 508.224a4.679 4.679 0 0 0-5.445 3.828 4.764 4.764 0 0 0 3.828 5.444l21.012 3.743a4.764 4.764 0 0 0 5.445-3.828 4.679 4.679 0 0 0-3.829-5.444zm55.635 10.038a4.764 4.764 0 0 0-5.445 3.828 4.679 4.679 0 0 0 3.828 5.36l21.013 3.742a4.679 4.679 0 0 0 1.616-9.272zm-12.335-11.91a4.764 4.764 0 0 0 2.211-2.977l3.744-21.013a4.764 4.764 0 0 0-3.744-5.444 4.679 4.679 0 0 0-5.444 3.828l-4.083 21.182a4.679 4.679 0 0 0 3.828 5.445 4.764 4.764 0 0 0 3.488-.766zm-13.526 29.604l-3.743 21.012a4.679 4.679 0 0 0 9.272 1.617l3.743-21.012a4.679 4.679 0 1 0-9.272-1.617zm-2.723-8.507a4.679 4.679 0 0 0-6.465-1.19l-17.61 11.909a4.679 4.679 0 0 0 5.36 7.656L52.78 533.66a4.679 4.679 0 0 0 1.701-6.21zm39.643-34.028l-17.525 12.42a4.679 4.679 0 0 0 5.36 7.657l17.524-12.25a4.679 4.679 0 0 0-5.36-7.656zm-54.19-9.442a4.679 4.679 0 0 0-1.19 6.465l12.25 17.524a4.679 4.679 0 0 0 7.656-5.359l-12.165-17.694a4.679 4.679 0 0 0-6.465-1.191zm32.242 46.363a4.679 4.679 0 0 0-1.191 6.465l12.25 17.524a4.679 4.679 0 1 0 7.656-5.36l-12.165-17.438a4.594 4.594 0 0 0-6.465-1.191zm0 0" fill="#FAEE00"/><path d="M322.96 149.656c56.827 34.027 140.195.425 140.195.425s-8.507-89.578-65.588-123.861-140.195-.68-140.195-.68 8.762 89.833 65.589 124.116z" fill="#FFF"/><path d="M335.551 125.07c45.767 27.648 112.972 0 112.972 0s-6.975-71.798-52.828-99.53-112.972 0-112.972 0 7.06 71.883 52.828 99.53z" fill="#8ED420"/><path d="M283.063 25.029s7.061 72.224 52.828 99.871c30.2 18.29 69.672 12.59 93.066 6.636-5.189 2.041-68.736 26.031-112.632-.51-46.022-27.478-53.083-99.702-53.083-99.702a170.139 170.139 0 0 1 19.821-6.295z" fill="#86C617"/><path d="M246.653 26.815a10.804 10.804 0 0 1 6.636-11.059c3.573-1.446 89.068-35.474 149.807 1.191s70.353 128.2 70.778 132.113a10.804 10.804 0 0 1-6.635 11.06c-3.573 1.445-89.068 35.473-149.808-1.192s-70.437-128.2-70.778-132.113zm145.3 8.507c-41.855-25.52-101.404-9.443-122.671-2.467 3.743 22.033 17.014 82.177 59.549 107.443s101.402 9.613 122.415 2.637c-3.999-22.033-17.355-82.092-59.294-107.443z" fill="#86C617"/></svg>